<svg version="1.1" id="Layer_1" xmlns="http://www.w3.org/2000/svg" xmlns:xlink="http://www.w3.org/1999/xlink" x="0px" y="0px"
	 width="100%" viewBox="0 0 1003 402" enable-background="new 0 0 1003 402" xml:space="preserve">
<path fill="#FDFCFD" opacity="1.000000" stroke="none" 
	d="
M1004.000000,376.000000 
	C1004.000000,384.992889 1004.000000,393.985748 1004.000000,403.000000 
	C829.645264,403.000000 655.290466,403.000000 480.602417,402.674805 
	C485.949860,400.454712 489.758484,396.374847 491.488037,390.939606 
	C495.410004,378.614685 498.813416,366.124695 502.398712,353.801331 
	C496.156525,350.577454 493.471893,351.747925 491.988861,357.772095 
	C490.365082,364.368164 488.642090,370.939819 486.598206,378.949097 
	C484.081726,371.469604 481.848877,365.552826 480.111420,359.493988 
	C477.730591,351.191681 476.985291,350.645538 468.944153,353.560486 
	C474.075439,365.525146 474.981812,379.083313 482.844635,390.205261 
	C480.141205,396.013214 473.427826,393.913116 469.188629,396.430573 
	C469.478149,398.774750 469.739075,400.887390 470.000000,403.000000 
	C313.787994,403.000000 157.576004,403.000000 1.000000,403.000000 
	C1.000000,372.312866 1.000000,341.624268 1.382424,310.815735 
	C9.357197,310.463318 16.948158,310.127167 24.542257,310.025665 
	C33.302029,309.908539 42.064564,309.998444 50.998398,309.998444 
	C50.998398,307.575104 50.998398,305.759216 50.998398,303.943298 
	C50.998398,244.780487 50.971413,185.617661 51.054935,126.454964 
	C51.060944,122.198868 51.539795,117.877434 52.371319,113.700356 
	C55.364197,98.665932 63.047829,86.024330 73.539749,75.172760 
	C90.798325,57.322582 111.901489,50.869400 136.366562,54.972614 
	C172.440628,61.022850 197.382187,92.111397 197.806976,127.319572 
	C198.518692,186.307129 198.001602,245.309509 198.001602,304.305664 
	C198.001602,306.088562 198.001587,307.871490 198.001587,309.772461 
	C214.515457,309.772461 230.586151,309.772461 246.999023,309.772461 
	C246.999023,307.755981 246.999023,305.960388 246.999008,304.164825 
	C246.998795,243.335526 247.060654,182.506104 246.945496,121.677017 
	C246.922760,109.668976 244.122040,98.052284 240.259399,86.728394 
	C232.463608,63.873947 218.764236,45.224358 199.871002,30.271936 
	C180.391602,14.855625 158.142395,6.234027 133.555145,4.129584 
	C117.725502,2.774710 102.108192,4.919962 86.930382,9.987083 
	C63.128998,17.933186 42.807968,31.059174 27.583786,51.091770 
	C15.860603,66.517609 8.388041,84.147850 3.914007,103.035469 
	C3.416471,105.135880 1.993687,107.017120 1.000000,109.000000 
	C1.000000,73.016060 1.000000,37.032124 1.000000,1.000000 
	C290.354767,1.000000 579.709534,1.000000 869.205322,1.278825 
	C868.840759,2.037988 868.412109,2.790485 867.818237,2.958351 
	C856.616516,6.124776 845.004089,8.247656 834.268066,12.557899 
	C817.380554,19.337793 803.829712,31.008991 792.214417,45.055637 
	C774.378479,66.625008 764.613464,91.597496 764.255432,119.199661 
	C763.447266,181.498535 763.999695,243.815094 764.013977,306.124451 
	C764.014282,307.383789 764.200928,308.643036 764.281860,309.665649 
	C781.072144,309.665649 797.474304,309.665649 814.254517,309.665649 
	C814.254517,267.605133 814.254517,225.876648 814.254517,184.304352 
	C860.033691,184.304352 905.427063,184.304352 951.203613,184.304352 
	C951.203613,226.337646 951.203613,268.066132 951.203613,309.705505 
	C967.991638,309.705505 984.392822,309.705505 1000.998474,309.705505 
	C1000.998474,307.604401 1000.998474,305.790741 1000.998474,303.977081 
	C1000.998474,247.665421 1000.944580,191.353653 1001.040894,135.042160 
	C1001.061829,122.807098 1000.616821,110.685669 998.058594,98.650208 
	C993.427795,76.863914 983.938721,57.499653 969.254333,40.845718 
	C951.007324,20.151445 927.631287,8.693268 900.692810,3.922891 
	C898.039185,3.452979 895.560120,1.997839 893.000000,0.999997 
	C929.965088,1.000000 966.930115,1.000000 1004.000000,1.000000 
	C1004.000000,117.688080 1004.000000,234.376190 1003.686157,351.354248 
	C1000.917664,343.643494 995.308960,339.689026 986.859314,340.001617 
	C979.775696,340.263672 975.213379,344.248383 973.993103,352.720367 
	C973.036011,359.365051 973.128418,366.181793 973.043823,372.925720 
	C972.952515,380.219696 977.722168,386.562744 983.961121,387.958344 
	C992.001831,389.756958 998.381897,386.887665 1002.065857,379.808502 
	C1002.723145,378.545563 1003.355896,377.269806 1004.000000,376.000000 
M509.724609,172.499863 
	C509.724609,218.241608 509.724609,263.983337 509.724609,309.783447 
	C526.465881,309.783447 542.550415,309.783447 559.022095,309.783447 
	C559.022095,262.839966 559.022095,216.109528 559.022095,168.999451 
	C573.526123,168.999451 587.647766,168.870880 601.760925,169.157791 
	C603.580078,169.194763 606.010132,170.975769 607.050720,172.640503 
	C618.458618,190.890701 629.720581,209.233551 640.876648,227.639389 
	C656.485413,253.391632 672.017273,279.190918 687.457031,305.044739 
	C689.668274,308.747528 692.435913,310.141907 696.702209,310.073059 
	C709.528625,309.866089 722.360474,309.998444 735.190247,309.998444 
	C739.753662,309.998444 744.317078,309.998444 749.637878,309.998444 
	C720.890991,262.593384 692.636902,216.000900 664.381653,169.406616 
	C672.305847,168.904907 679.863098,169.129440 687.149902,167.833130 
	C708.937927,163.957062 726.936707,153.324097 740.058594,135.337204 
	C754.647278,115.339508 758.595215,92.876900 753.447998,68.908531 
	C749.579712,50.895138 740.182129,35.877888 726.277527,23.844830 
	C711.235718,10.827594 693.723145,3.217139 673.745789,3.103745 
	C620.928894,2.803950 568.109192,3.001820 515.290649,3.001610 
	C513.519348,3.001603 511.748108,3.001609 509.724609,3.001609 
	C509.724609,59.564499 509.724609,115.532173 509.724609,172.499863 
M490.967651,78.732117 
	C490.646210,78.169846 490.275391,77.629837 490.010437,77.042091 
	C481.618530,58.426270 469.652405,42.479424 453.401001,30.122158 
	C434.772034,15.957050 413.888397,7.258422 390.329254,4.779149 
	C374.367004,3.099339 358.879822,4.338323 343.597137,8.795612 
	C320.256042,15.603182 300.964233,28.756443 284.629028,46.603188 
	C274.653412,57.501869 267.359009,69.978333 262.107452,83.657860 
	C256.169891,99.124367 254.494400,115.431427 254.098175,131.803574 
	C253.671066,149.452087 253.670319,167.127655 254.134842,184.774277 
	C254.384460,194.257462 255.176498,203.880447 257.151337,213.135757 
	C263.516418,242.966660 279.458344,266.914337 303.652740,285.387238 
	C322.221252,299.564667 342.898315,308.102753 366.403320,310.282806 
	C381.411591,311.674774 395.904816,310.090546 410.268799,306.333344 
	C435.044067,299.852966 454.976196,285.587891 471.699066,266.678925 
	C481.595459,255.488907 488.898376,242.700592 494.139374,228.566620 
	C499.810242,213.273453 500.343445,197.330521 500.773193,181.524918 
	C501.359985,159.943893 500.483154,138.317596 500.015900,116.715424 
	C499.734467,103.702415 495.753540,91.498085 490.967651,78.732117 
M898.625732,209.916245 
	C894.954346,214.255554 891.282959,218.594879 887.329529,223.267548 
	C884.911621,207.709000 878.938232,198.565414 868.226624,197.352951 
	C866.608521,221.234726 865.171692,224.055588 850.972595,242.742569 
	C843.229553,252.933075 840.934021,264.618835 844.551697,277.376434 
	C848.475342,291.213440 866.483093,307.481628 887.187988,304.099854 
	C901.174316,301.815521 911.314087,294.797028 917.112305,281.831116 
	C924.438232,265.448883 920.670166,250.242920 912.069519,235.524307 
	C907.090515,227.003510 902.562256,218.258713 901.661987,207.684189 
	C900.638977,208.345642 899.883057,208.834396 898.625732,209.916245 
M213.004639,384.488342 
	C219.430893,373.824707 217.092255,366.799622 205.671494,362.460205 
	C212.377396,359.566681 213.758102,357.213959 212.999420,349.973328 
	C212.546722,345.652863 208.914413,341.343353 204.622040,341.103333 
	C198.205276,340.744568 191.753616,341.010193 185.001587,341.010193 
	C185.001587,353.744812 185.001602,366.034546 185.001602,378.324280 
	C185.001602,387.998444 185.002151,388.061646 194.783752,387.975128 
	C200.803070,387.921936 207.046326,388.988098 213.004639,384.488342 
M77.001595,350.533875 
	C77.001595,361.012360 76.989761,371.490845 77.009010,381.969299 
	C77.014580,385.001190 76.051132,388.146729 81.381462,388.187592 
	C86.498611,388.226807 86.105652,385.513184 86.019836,382.204742 
	C85.925667,378.574188 85.998398,374.939331 85.998398,371.405334 
	C91.485756,369.862610 93.854607,372.275879 95.038193,377.072266 
	C97.727753,387.971558 98.092651,388.175842 107.900253,387.954437 
	C108.148277,387.948822 108.391243,387.719421 108.839943,387.490753 
	C106.898865,382.702057 105.142349,377.836029 102.952744,373.173370 
	C101.705376,370.517151 101.553917,368.380066 103.616768,366.189362 
	C107.972084,361.564117 107.645744,355.715668 106.814552,350.249756 
	C106.107239,345.598572 103.085419,341.509308 97.903175,341.137726 
	C91.025276,340.644531 84.085350,341.016144 77.001595,341.016144 
	C77.001595,344.255890 77.001595,346.900146 77.001595,350.533875 
M544.001526,363.500031 
	C544.001526,371.583160 544.001526,379.666290 544.001526,388.435394 
	C551.278625,387.963745 558.029541,387.849274 564.687317,387.002869 
	C571.213684,386.173126 574.783813,381.978638 574.998413,376.064911 
	C575.266296,368.679535 573.057922,365.816406 565.739746,363.926422 
	C564.645752,363.643921 563.623169,363.084961 562.292603,362.541595 
	C563.023560,362.299957 563.468689,362.176910 563.895752,362.007965 
	C570.052673,359.572052 572.340332,356.532593 571.997925,351.255585 
	C571.665466,346.131317 568.949951,342.867615 562.562866,341.823761 
	C556.623108,340.852966 550.509888,340.943420 544.001526,340.537201 
	C544.001526,348.293671 544.001526,355.396912 544.001526,363.500031 
M338.390198,371.005615 
	C342.615448,370.253357 344.774078,372.428955 345.967560,376.191345 
	C346.748077,378.651855 347.632019,381.097290 348.697449,383.446198 
	C351.165558,388.887543 354.165558,389.624146 359.498840,386.347229 
	C357.663757,381.809601 355.572784,377.370911 354.140991,372.728943 
	C353.588684,370.938324 353.836029,368.148193 354.921387,366.740387 
	C358.859619,361.632050 358.639771,355.846985 357.838715,350.215485 
	C357.194183,345.684357 354.240814,341.835480 349.363403,341.224365 
	C342.703949,340.389923 335.943970,340.357513 329.137634,339.976288 
	C329.137634,356.254761 329.137634,372.081055 329.137634,387.693390 
	C331.995941,387.693390 334.411438,387.693390 336.743622,387.693390 
	C336.997955,381.953491 337.238678,376.520721 338.390198,371.005615 
M641.200317,387.173462 
	C642.993042,387.509857 644.785828,387.846283 647.160706,388.291931 
	C644.952454,383.145538 643.149536,378.790222 641.218445,374.492462 
	C639.693054,371.097778 639.568787,368.391357 642.265320,365.059418 
	C648.975403,356.768188 644.521118,342.266724 634.981750,341.169983 
	C628.479065,340.422363 621.820984,341.027008 615.001465,341.027008 
	C615.001465,355.840393 615.048218,370.125366 614.967712,384.409637 
	C614.948181,387.871033 617.316895,388.305969 619.547852,387.834045 
	C620.910156,387.545868 622.816711,385.735291 622.944519,384.455170 
	C623.371399,380.181976 623.106262,375.839630 623.106262,371.573517 
	C630.615417,369.984283 630.589355,369.993744 633.018127,376.680084 
	C633.902283,379.114258 635.419250,381.420044 635.792847,383.912506 
	C636.261353,387.038910 638.116943,387.086121 641.200317,387.173462 
M31.013182,382.557190 
	C37.908733,375.347961 37.765591,366.579926 36.326000,357.641632 
	C35.402325,351.906586 33.875027,345.613617 27.955875,343.622406 
	C21.015020,341.287506 13.472305,340.741730 6.122356,339.407501 
	C6.122356,356.297333 6.122356,372.165588 6.122356,387.998383 
	C9.659905,387.998383 12.954543,388.575653 15.945161,387.868011 
	C20.883789,386.699493 25.626143,384.701416 31.013182,382.557190 
M113.001595,355.504669 
	C113.001595,366.259979 113.001595,377.015259 113.001595,387.731964 
	C116.278038,387.731964 119.013504,387.731964 121.998398,387.731964 
	C121.998398,384.499969 122.296234,381.494354 121.931534,378.571411 
	C121.319778,373.668335 122.868065,371.136322 128.378265,371.783722 
	C129.869522,375.388824 131.324860,379.159882 132.976791,382.842743 
	C135.609726,388.712708 138.512604,389.658630 145.066605,386.658020 
	C142.824066,381.701508 140.894806,376.559387 138.236542,371.826721 
	C135.911407,367.687134 135.878891,364.266541 138.357971,360.156311 
	C141.832764,354.395172 144.146225,348.140137 142.650330,341.206696 
	C139.984940,341.206696 137.549454,341.206696 135.185089,341.206696 
	C129.972305,359.980865 129.037323,361.448608 121.750572,361.905396 
	C121.750572,354.963226 121.750572,348.040161 121.750572,341.277191 
	C118.655159,341.277191 115.921730,341.277191 113.001595,341.277191 
	C113.001595,345.893890 113.001595,350.200836 113.001595,355.504669 
M938.001526,363.500122 
	C938.001526,367.826294 938.044800,372.152954 937.993469,376.478516 
	C937.838806,389.511597 937.440430,388.229218 950.001770,387.878082 
	C956.460449,387.697540 962.969421,386.034241 966.048340,379.362274 
	C970.603699,369.491058 970.722656,359.273743 965.917664,349.519775 
	C962.661377,342.909576 951.601562,338.963959 944.190613,340.105011 
	C939.152405,340.880707 937.232056,342.782684 937.878052,348.039429 
	C938.462219,352.792969 938.001526,357.674927 938.001526,363.500122 
M317.306824,387.998444 
	C323.504211,387.934509 323.504211,387.934509 322.588135,378.856262 
	C315.788727,378.856262 308.915253,378.856262 302.192932,378.856262 
	C302.192932,375.019653 302.192932,371.736633 302.192932,367.888794 
	C307.233276,367.888794 312.096954,367.888794 316.648987,367.888794 
	C316.648987,364.902344 316.648987,362.497406 316.648987,359.722229 
	C311.562317,359.722229 306.824799,359.722229 302.332947,359.722229 
	C302.332947,355.920715 302.332947,352.517883 302.332947,348.998444 
	C307.146545,348.998444 311.626221,349.002136 316.105927,348.997620 
	C322.989197,348.990692 323.759003,348.020569 322.393982,341.228699 
	C312.649200,341.228699 302.928772,341.228699 293.247528,341.228699 
	C293.247528,356.927582 293.247528,372.313019 293.247528,387.998444 
	C301.106873,387.998444 308.724060,387.998444 317.306824,387.998444 
M662.906921,340.002502 
	C659.844482,341.855072 655.553589,342.974731 653.934631,345.688416 
	C647.312561,356.788635 647.129028,368.611115 652.666504,380.305725 
	C655.421875,386.124725 660.548706,388.236267 666.816956,388.310425 
	C672.890503,388.382263 676.560364,385.210693 679.096191,380.103668 
	C682.863953,372.515961 683.369629,364.248505 681.622253,356.433380 
	C679.086243,345.091095 676.311035,339.443848 662.906921,340.002502 
M256.994354,377.477814 
	C256.994354,380.919891 256.994354,384.362000 256.994354,387.727386 
	C259.954315,387.727386 262.358032,387.727386 264.361603,387.727386 
	C267.125153,382.104095 260.479279,373.125549 271.466614,370.924377 
	C272.177032,372.713379 272.777374,374.376343 273.494049,375.987549 
	C274.218109,377.615326 275.170990,379.146759 275.826904,380.798523 
	C278.844025,388.396393 279.451752,388.760681 288.651550,387.450195 
	C286.191986,381.832489 283.987061,376.300629 281.363617,370.974915 
	C279.547272,367.287659 279.508972,364.203339 281.762817,360.582092 
	C285.398285,354.740997 286.968628,348.193207 286.891235,341.248108 
	C283.698944,341.248108 280.938354,341.248108 278.200867,341.248108 
	C277.326752,354.940521 272.914062,361.777802 264.740356,361.770386 
	C264.740356,354.848145 264.740356,347.923828 264.740356,341.247253 
	C261.967773,341.247253 259.559387,341.247253 257.223419,341.247253 
	C257.115295,341.892090 257.015717,342.210175 257.015350,342.528412 
	C257.002594,353.846405 256.999115,365.164429 256.994354,377.477814 
M449.550140,388.049591 
	C462.079132,387.510437 471.570526,372.881592 464.436798,358.649506 
	C461.703583,353.196594 457.480743,350.925385 451.598694,352.089325 
	C449.472870,352.510040 447.531647,353.863708 444.943909,355.049255 
	C444.943909,349.207672 444.943909,343.686798 444.943909,338.229980 
	C441.980377,338.229980 439.550232,338.229980 436.933594,338.229980 
	C436.933594,354.847046 436.933594,371.235352 436.933594,388.137665 
	C441.010193,388.137665 444.854156,388.137665 449.550140,388.049591 
M227.396393,350.920746 
	C224.137253,363.142670 220.878128,375.364594 217.537399,387.892487 
	C221.198868,387.892487 223.835144,387.892487 226.429260,387.892487 
	C227.166321,385.832764 227.840363,383.871307 228.568344,381.930054 
	C230.443909,376.928375 234.749191,379.628693 237.988922,379.032043 
	C240.963730,378.484161 241.762360,380.392548 242.490967,382.927338 
	C244.151291,388.703461 245.951691,389.318451 252.726761,387.025879 
	C248.652405,371.658508 244.575745,356.282440 240.502533,340.919403 
	C237.802444,340.919403 235.390182,340.544769 233.177917,341.048492 
	C231.650970,341.396179 229.864380,342.681488 229.159210,344.046509 
	C228.229309,345.846619 228.245209,348.135345 227.396393,350.920746 
M743.465332,341.001556 
	C737.029602,341.001556 730.593933,341.001556 724.158813,341.001556 
	C724.158813,356.919220 724.158813,372.307831 724.158813,387.998169 
	C732.726562,387.998169 741.022156,387.874756 749.310913,388.058167 
	C752.683838,388.132751 753.113892,386.488861 753.048340,383.749298 
	C752.984558,381.080322 753.185913,378.777313 749.293091,378.941132 
	C743.659790,379.178192 738.009033,379.001831 732.439697,379.001831 
	C729.968689,368.760071 730.469666,368.136932 740.903992,368.096100 
	C741.736328,368.092865 742.570190,368.055145 743.400818,368.091614 
	C746.217224,368.215210 748.305115,367.751099 748.053223,364.078888 
	C747.841736,360.996613 746.671143,359.710571 743.464905,359.918121 
	C739.717163,360.160706 735.941650,359.974762 732.308350,359.974762 
	C732.308350,355.966980 732.308350,352.565430 732.308350,348.792572 
	C739.362427,348.792572 746.112488,348.792572 752.694519,348.792572 
	C752.694519,345.991852 752.694519,343.585785 752.694519,341.001556 
	C749.746155,341.001556 747.100098,341.001556 743.465332,341.001556 
M38.980080,385.621307 
	C39.491142,386.412354 39.876183,387.755127 40.533630,387.905304 
	C44.958153,388.915985 47.600471,386.283966 48.619404,382.581360 
	C49.487419,379.427155 51.031197,378.705231 53.882149,378.964050 
	C55.865734,379.144135 57.919128,378.764008 59.862564,379.095703 
	C60.951870,379.281677 62.758617,380.421722 62.747395,381.107452 
	C62.622719,388.725952 67.365250,388.636536 72.977821,387.674866 
	C72.977821,386.779083 73.178215,385.786469 72.947845,384.906647 
	C69.328873,371.084717 65.669655,357.273193 61.955776,343.476501 
	C61.726570,342.625000 61.144535,341.562958 60.423664,341.199036 
	C55.737843,338.833344 50.283325,341.571930 48.981579,346.633942 
	C45.711174,359.351318 42.335175,372.041534 38.980080,385.621307 
M908.843750,352.251740 
	C906.107361,362.647308 903.592651,373.109070 900.519226,383.403992 
	C899.380127,387.219727 901.004517,387.627869 903.868347,388.032288 
	C907.172607,388.498901 908.291077,386.390350 908.944946,383.906616 
	C909.707092,381.011902 910.534180,378.675964 914.343689,378.938507 
	C918.426025,379.219818 922.688049,378.321167 924.676514,383.558777 
	C926.717041,388.933319 928.592651,389.347076 933.853943,386.342926 
	C929.828003,371.261810 925.808472,356.204895 921.812134,341.234619 
	C912.259888,340.432526 912.250366,340.429382 909.397278,349.018066 
	C909.142639,349.784485 909.116516,350.626770 908.843750,352.251740 
M840.170837,379.044434 
	C846.087585,378.911499 852.576233,377.358673 854.251099,386.175385 
	C854.426270,387.097351 858.419861,387.293884 860.641846,387.826996 
	C860.802856,386.420288 861.178894,384.996490 861.068604,383.611389 
	C860.940369,382.000824 860.425598,380.413727 860.010193,378.834473 
	C857.036621,367.530853 853.896912,356.267975 851.134766,344.913177 
	C850.058289,340.487915 846.968872,340.614838 843.890991,341.080780 
	C842.172913,341.340881 839.557434,342.547028 839.197083,343.841980 
	C835.447510,357.314941 832.015869,370.878510 828.721802,384.471619 
	C828.490845,385.424866 829.823853,387.554688 830.817871,387.855865 
	C833.664001,388.718170 835.873840,387.599915 836.920288,384.513153 
	C837.535034,382.699799 838.526123,381.014038 840.170837,379.044434 
M816.241394,351.031982 
	C821.543884,353.108459 820.659790,347.331573 823.707947,345.823059 
	C821.514160,344.177460 819.946289,342.679810 818.108032,341.678223 
	C810.185120,337.361298 796.057861,340.945984 795.632019,350.273071 
	C795.352600,356.392731 797.342529,361.396851 802.166992,365.054565 
	C804.869263,367.103333 808.343811,368.234375 810.756165,370.529694 
	C812.409180,372.102386 812.831909,374.968231 813.804626,377.256012 
	C811.275818,377.984192 808.747620,379.298370 806.218140,379.300659 
	C802.592590,379.303955 798.966248,378.349731 795.063110,377.762634 
	C795.063110,381.154144 795.063110,383.911163 795.063110,386.949585 
	C800.636719,387.305908 806.075439,388.135956 811.455994,387.854431 
	C816.301392,387.600922 820.460571,385.271515 822.907959,380.580658 
	C825.187622,376.211212 823.570557,372.418243 820.845337,369.319794 
	C817.758972,365.810883 814.178223,362.613220 810.371094,359.899384 
	C807.079102,357.552795 803.117493,354.987793 805.430359,351.038788 
	C807.600830,347.332977 812.043579,348.535553 816.241394,351.031982 
M589.538940,341.001556 
	C586.412354,341.001556 583.285828,341.001556 579.628662,341.001556 
	C580.180115,344.013489 580.633423,346.489136 581.092896,348.998322 
	C582.463501,348.998322 583.303650,349.104523 584.108398,348.980743 
	C588.594299,348.290741 590.412048,349.844574 590.103882,354.672302 
	C589.680542,361.304016 589.868042,367.983429 589.999756,374.638336 
	C590.072205,378.299133 587.977661,379.604675 584.908264,379.961914 
	C583.105164,380.171814 581.257751,380.000244 578.087708,380.000244 
	C580.502136,383.131897 582.161560,387.410797 584.285767,387.655487 
	C591.754456,388.515808 599.382812,387.989594 606.913818,387.989594 
	C607.094116,379.625092 607.094116,379.625092 598.308472,378.580353 
	C598.308472,368.856110 598.308472,359.105499 598.308472,349.340576 
	C601.280762,348.798920 604.114014,348.282562 606.738403,347.804291 
	C606.738403,345.356293 606.738403,343.283112 606.738403,341.001556 
	C601.136841,341.001556 595.831299,341.001556 589.538940,341.001556 
M362.852509,345.655823 
	C367.728607,359.495117 375.883575,372.354462 374.854828,387.783051 
	C377.873749,387.783051 380.299438,387.783051 383.335999,387.783051 
	C380.155914,370.220703 391.500183,356.807343 396.249084,341.508087 
	C388.615295,339.671997 388.096649,339.850433 385.127319,346.537506 
	C382.903625,351.545319 380.909637,356.655151 378.663422,362.081848 
	C376.521423,356.736542 374.642883,351.934052 372.676453,347.167816 
	C369.572479,339.644379 369.250244,339.507050 360.886566,341.475922 
	C361.393219,342.683533 361.885315,343.856476 362.852509,345.655823 
M867.001526,371.498352 
	C867.001526,376.929047 867.001526,382.359741 867.001526,387.998444 
	C875.051392,387.998444 882.527222,388.000702 890.003113,387.997833 
	C897.451660,387.994995 898.125977,386.985138 895.138000,379.498169 
	C888.620605,379.498169 881.883667,379.498169 874.809998,379.498169 
	C874.809998,366.384583 874.809998,353.786041 874.809998,341.287720 
	C872.025940,341.287720 869.619629,341.287720 867.001526,341.287720 
	C867.001526,351.214355 867.001526,360.856537 867.001526,371.498352 
M687.606567,349.147247 
	C688.939575,349.147583 690.301270,349.326263 691.600464,349.116760 
	C696.653564,348.302094 698.232056,350.237823 697.995667,355.384338 
	C697.560364,364.861877 697.814148,374.374084 697.896240,383.870819 
	C697.928223,387.570404 700.485107,389.550293 703.222595,387.775452 
	C704.482483,386.958679 705.182983,384.451355 705.210510,382.696106 
	C705.384399,371.582581 705.298767,360.465027 705.298767,348.985199 
	C709.751282,348.985199 713.685852,348.985199 717.801575,348.985199 
	C717.801575,346.211304 717.801575,343.807434 717.801575,341.202179 
	C706.879089,341.202179 696.135437,341.202179 684.218994,341.202179 
	C685.126221,344.148438 685.894348,346.642883 687.606567,349.147247 
z"/>
<path fill="#000000" opacity="1.000000" stroke="none" 
	d="
M892.531372,0.999997 
	C895.560120,1.997839 898.039185,3.452979 900.692810,3.922891 
	C927.631287,8.693268 951.007324,20.151445 969.254333,40.845718 
	C983.938721,57.499653 993.427795,76.863914 998.058594,98.650208 
	C1000.616821,110.685669 1001.061829,122.807098 1001.040894,135.042160 
	C1000.944580,191.353653 1000.998474,247.665421 1000.998474,303.977081 
	C1000.998474,305.790741 1000.998474,307.604401 1000.998474,309.705505 
	C984.392822,309.705505 967.991638,309.705505 951.203613,309.705505 
	C951.203613,268.066132 951.203613,226.337646 951.203613,184.304352 
	C905.427063,184.304352 860.033691,184.304352 814.254517,184.304352 
	C814.254517,225.876648 814.254517,267.605133 814.254517,309.665649 
	C797.474304,309.665649 781.072144,309.665649 764.281860,309.665649 
	C764.200928,308.643036 764.014282,307.383789 764.013977,306.124451 
	C763.999695,243.815094 763.447266,181.498535 764.255432,119.199661 
	C764.613464,91.597496 774.378479,66.625008 792.214417,45.055637 
	C803.829712,31.008991 817.380554,19.337793 834.268066,12.557899 
	C845.004089,8.247656 856.616516,6.124776 867.818237,2.958351 
	C868.412109,2.790485 868.840759,2.037988 869.673157,1.278825 
	C877.354248,1.000000 884.708496,1.000000 892.531372,0.999997 
M940.464844,134.873123 
	C943.892090,134.873123 947.319336,134.873123 950.633728,134.873123 
	C951.988953,120.827621 950.641174,107.952034 945.026611,95.633072 
	C933.616211,70.597725 914.741699,55.147114 887.158264,52.213852 
	C868.438416,50.223167 851.766479,56.702507 838.146240,69.572937 
	C820.712769,86.046692 812.682800,106.556183 813.929810,130.664062 
	C814.146667,134.858032 816.336975,134.917038 819.475037,134.912354 
	C859.474426,134.852829 899.473938,134.873123 940.464844,134.873123 
z"/>
<path fill="#000000" opacity="1.000000" stroke="none" 
	d="
M1.000000,109.468658 
	C1.993687,107.017120 3.416471,105.135880 3.914007,103.035469 
	C8.388041,84.147850 15.860603,66.517609 27.583786,51.091770 
	C42.807968,31.059174 63.128998,17.933186 86.930382,9.987083 
	C102.108192,4.919962 117.725502,2.774710 133.555145,4.129584 
	C158.142395,6.234027 180.391602,14.855625 199.871002,30.271936 
	C218.764236,45.224358 232.463608,63.873947 240.259399,86.728394 
	C244.122040,98.052284 246.922760,109.668976 246.945496,121.677017 
	C247.060654,182.506104 246.998795,243.335526 246.999008,304.164825 
	C246.999023,305.960388 246.999023,307.755981 246.999023,309.772461 
	C230.586151,309.772461 214.515457,309.772461 198.001587,309.772461 
	C198.001587,307.871490 198.001602,306.088562 198.001602,304.305664 
	C198.001602,245.309509 198.518692,186.307129 197.806976,127.319572 
	C197.382187,92.111397 172.440628,61.022850 136.366562,54.972614 
	C111.901489,50.869400 90.798325,57.322582 73.539749,75.172760 
	C63.047829,86.024330 55.364197,98.665932 52.371319,113.700356 
	C51.539795,117.877434 51.060944,122.198868 51.054935,126.454964 
	C50.971413,185.617661 50.998398,244.780487 50.998398,303.943298 
	C50.998398,305.759216 50.998398,307.575104 50.998398,309.998444 
	C42.064564,309.998444 33.302029,309.908539 24.542257,310.025665 
	C16.948158,310.127167 9.357197,310.463318 1.382424,310.347870 
	C1.000000,243.312439 1.000000,176.624878 1.000000,109.468658 
z"/>
<path fill="#000000" opacity="1.000000" stroke="none" 
	d="
M1004.000000,375.531372 
	C1003.355896,377.269806 1002.723145,378.545563 1002.065857,379.808502 
	C998.381897,386.887665 992.001831,389.756958 983.961121,387.958344 
	C977.722168,386.562744 972.952515,380.219696 973.043823,372.925720 
	C973.128418,366.181793 973.036011,359.365051 973.993103,352.720367 
	C975.213379,344.248383 979.775696,340.263672 986.859314,340.001617 
	C995.308960,339.689026 1000.917664,343.643494 1003.686157,351.822083 
	C1004.000000,359.687592 1004.000000,367.375153 1004.000000,375.531372 
M984.796875,349.929993 
	C979.483826,355.505096 978.155945,368.992004 982.849609,375.164673 
	C984.513977,377.353455 987.880737,379.921539 990.045593,379.584961 
	C992.209290,379.248566 994.785767,375.764160 995.518799,373.186920 
	C997.266418,367.042206 998.038208,360.725555 995.131958,354.415680 
	C992.767090,349.280975 991.025513,348.063904 984.796875,349.929993 
z"/>
<path fill="#000000" opacity="1.000000" stroke="none" 
	d="
M470.454102,403.000000 
	C469.739075,400.887390 469.478149,398.774750 469.188629,396.430573 
	C473.427826,393.913116 480.141205,396.013214 482.844635,390.205261 
	C474.981812,379.083313 474.075439,365.525146 468.944153,353.560486 
	C476.985291,350.645538 477.730591,351.191681 480.111420,359.493988 
	C481.848877,365.552826 484.081726,371.469604 486.598206,378.949097 
	C488.642090,370.939819 490.365082,364.368164 491.988861,357.772095 
	C493.471893,351.747925 496.156525,350.577454 502.398712,353.801331 
	C498.813416,366.124695 495.410004,378.614685 491.488037,390.939606 
	C489.758484,396.374847 485.949860,400.454712 480.134583,402.674805 
	C476.969391,403.000000 473.938812,403.000000 470.454102,403.000000 
z"/>
<path fill="#000000" opacity="1.000000" stroke="none" 
	d="
M509.724609,171.999847 
	C509.724609,115.532173 509.724609,59.564499 509.724609,3.001609 
	C511.748108,3.001609 513.519348,3.001603 515.290649,3.001610 
	C568.109192,3.001820 620.928894,2.803950 673.745789,3.103745 
	C693.723145,3.217139 711.235718,10.827594 726.277527,23.844830 
	C740.182129,35.877888 749.579712,50.895138 753.447998,68.908531 
	C758.595215,92.876900 754.647278,115.339508 740.058594,135.337204 
	C726.936707,153.324097 708.937927,163.957062 687.149902,167.833130 
	C679.863098,169.129440 672.305847,168.904907 664.381653,169.406616 
	C692.636902,216.000900 720.890991,262.593384 749.637878,309.998444 
	C744.317078,309.998444 739.753662,309.998444 735.190247,309.998444 
	C722.360474,309.998444 709.528625,309.866089 696.702209,310.073059 
	C692.435913,310.141907 689.668274,308.747528 687.457031,305.044739 
	C672.017273,279.190918 656.485413,253.391632 640.876648,227.639389 
	C629.720581,209.233551 618.458618,190.890701 607.050720,172.640503 
	C606.010132,170.975769 603.580078,169.194763 601.760925,169.157791 
	C587.647766,168.870880 573.526123,168.999451 559.022095,168.999451 
	C559.022095,216.109528 559.022095,262.839966 559.022095,309.783447 
	C542.550415,309.783447 526.465881,309.783447 509.724609,309.783447 
	C509.724609,263.983337 509.724609,218.241608 509.724609,171.999847 
M700.821533,67.828522 
	C693.509521,57.200420 683.337769,52.835835 670.534302,52.918358 
	C634.872375,53.148212 599.207703,53.058235 563.544861,52.915417 
	C559.496216,52.899200 558.057800,53.845085 558.109985,58.155804 
	C558.337952,76.984657 558.327454,95.819183 558.115723,114.648415 
	C558.068542,118.846657 559.325134,120.053337 563.486694,120.035690 
	C599.482605,119.883064 635.479553,119.978516 671.475647,119.849365 
	C675.040222,119.836578 678.668518,119.089310 682.152832,118.222786 
	C701.892761,113.313568 713.569031,87.771713 700.821533,67.828522 
z"/>
<path fill="#000000" opacity="1.000000" stroke="none" 
	d="
M490.986755,79.126846 
	C495.753540,91.498085 499.734467,103.702415 500.015900,116.715424 
	C500.483154,138.317596 501.359985,159.943893 500.773193,181.524918 
	C500.343445,197.330521 499.810242,213.273453 494.139374,228.566620 
	C488.898376,242.700592 481.595459,255.488907 471.699066,266.678925 
	C454.976196,285.587891 435.044067,299.852966 410.268799,306.333344 
	C395.904816,310.090546 381.411591,311.674774 366.403320,310.282806 
	C342.898315,308.102753 322.221252,299.564667 303.652740,285.387238 
	C279.458344,266.914337 263.516418,242.966660 257.151337,213.135757 
	C255.176498,203.880447 254.384460,194.257462 254.134842,184.774277 
	C253.670319,167.127655 253.671066,149.452087 254.098175,131.803574 
	C254.494400,115.431427 256.169891,99.124367 262.107452,83.657860 
	C267.359009,69.978333 274.653412,57.501869 284.629028,46.603188 
	C300.964233,28.756443 320.256042,15.603182 343.597137,8.795612 
	C358.879822,4.338323 374.367004,3.099339 390.329254,4.779149 
	C413.888397,7.258422 434.772034,15.957050 453.401001,30.122158 
	C469.652405,42.479424 481.618530,58.426270 490.010437,77.042091 
	C490.275391,77.629837 490.646210,78.169846 490.986755,79.126846 
M303.999359,183.495148 
	C304.332214,189.269974 304.194794,195.118256 305.083221,200.806320 
	C308.163361,220.527649 318.132263,236.214554 334.212921,247.895370 
	C351.701813,260.599121 371.623474,264.076904 392.242676,259.746460 
	C419.573547,254.006424 439.619690,238.127151 447.961548,210.859848 
	C451.262573,200.069611 451.263733,188.112595 451.711456,176.645599 
	C452.302460,161.509918 451.936615,146.332977 451.805908,131.175293 
	C451.764618,126.392357 451.571167,121.540680 450.735474,116.847214 
	C447.682129,99.698547 439.823181,85.163116 426.879395,73.297020 
	C413.052032,60.620899 396.823059,53.555584 378.233093,53.184948 
	C360.630676,52.833996 345.164337,59.271305 331.647705,70.719246 
	C314.319366,85.395554 304.481567,103.699043 304.068665,126.524910 
	C303.731262,145.176590 303.999603,163.839233 303.999359,183.495148 
z"/>
<path fill="#000000" opacity="1.000000" stroke="none" 
	d="
M898.876465,209.619705 
	C899.883057,208.834396 900.638977,208.345642 901.661987,207.684189 
	C902.562256,218.258713 907.090515,227.003510 912.069519,235.524307 
	C920.670166,250.242920 924.438232,265.448883 917.112305,281.831116 
	C911.314087,294.797028 901.174316,301.815521 887.187988,304.099854 
	C866.483093,307.481628 848.475342,291.213440 844.551697,277.376434 
	C840.934021,264.618835 843.229553,252.933075 850.972595,242.742569 
	C865.171692,224.055588 866.608521,221.234726 868.226624,197.352951 
	C878.938232,198.565414 884.911621,207.709000 887.329529,223.267548 
	C891.282959,218.594879 894.954346,214.255554 898.876465,209.619705 
z"/>
<path fill="#000000" opacity="1.000000" stroke="none" 
	d="
M212.718658,384.764069 
	C207.046326,388.988098 200.803070,387.921936 194.783752,387.975128 
	C185.002151,388.061646 185.001602,387.998444 185.001602,378.324280 
	C185.001602,366.034546 185.001587,353.744812 185.001587,341.010193 
	C191.753616,341.010193 198.205276,340.744568 204.622040,341.103333 
	C208.914413,341.343353 212.546722,345.652863 212.999420,349.973328 
	C213.758102,357.213959 212.377396,359.566681 205.671494,362.460205 
	C217.092255,366.799622 219.430893,373.824707 212.718658,384.764069 
M193.987167,373.462952 
	C193.987167,375.536438 193.987167,377.609955 193.987167,381.245880 
	C198.911392,379.561157 202.946381,378.605316 206.393738,376.626007 
	C207.046402,376.251312 206.190475,370.662323 204.577911,369.507202 
	C201.842712,367.547852 197.951157,367.202698 193.987167,366.011200 
	C193.987167,369.245758 193.987167,370.879028 193.987167,373.462952 
M204.715729,353.629272 
	C203.115082,347.857452 198.657410,348.914673 194.328400,349.139526 
	C194.328400,352.527008 194.328400,355.706177 194.328400,358.871429 
	C201.962967,359.075623 202.478378,358.846008 204.715729,353.629272 
z"/>
<path fill="#000000" opacity="1.000000" stroke="none" 
	d="
M77.001595,350.039124 
	C77.001595,346.900146 77.001595,344.255890 77.001595,341.016144 
	C84.085350,341.016144 91.025276,340.644531 97.903175,341.137726 
	C103.085419,341.509308 106.107239,345.598572 106.814552,350.249756 
	C107.645744,355.715668 107.972084,361.564117 103.616768,366.189362 
	C101.553917,368.380066 101.705376,370.517151 102.952744,373.173370 
	C105.142349,377.836029 106.898865,382.702057 108.839943,387.490753 
	C108.391243,387.719421 108.148277,387.948822 107.900253,387.954437 
	C98.092651,388.175842 97.727753,387.971558 95.038193,377.072266 
	C93.854607,372.275879 91.485756,369.862610 85.998398,371.405334 
	C85.998398,374.939331 85.925667,378.574188 86.019836,382.204742 
	C86.105652,385.513184 86.498611,388.226807 81.381462,388.187592 
	C76.051132,388.146729 77.014580,385.001190 77.009010,381.969299 
	C76.989761,371.490845 77.001595,361.012360 77.001595,350.039124 
M97.655098,352.263458 
	C96.970016,351.546326 96.355240,350.306976 95.587532,350.203644 
	C92.474098,349.784576 87.350731,348.506531 86.575989,349.765381 
	C84.922920,352.451416 85.256691,356.529846 85.399055,360.012360 
	C85.428581,360.734558 88.140739,361.858551 89.653549,361.922607 
	C97.349426,362.248322 98.095688,361.345428 97.655098,352.263458 
z"/>
<path fill="#000000" opacity="1.000000" stroke="none" 
	d="
M544.001526,363.000061 
	C544.001526,355.396912 544.001526,348.293671 544.001526,340.537201 
	C550.509888,340.943420 556.623108,340.852966 562.562866,341.823761 
	C568.949951,342.867615 571.665466,346.131317 571.997925,351.255585 
	C572.340332,356.532593 570.052673,359.572052 563.895752,362.007965 
	C563.468689,362.176910 563.023560,362.299957 562.292603,362.541595 
	C563.623169,363.084961 564.645752,363.643921 565.739746,363.926422 
	C573.057922,365.816406 575.266296,368.679535 574.998413,376.064911 
	C574.783813,381.978638 571.213684,386.173126 564.687317,387.002869 
	C558.029541,387.849274 551.278625,387.963745 544.001526,388.435394 
	C544.001526,379.666290 544.001526,371.583160 544.001526,363.000061 
M555.554626,366.988678 
	C554.472168,367.204834 552.446533,367.423462 552.447144,367.636749 
	C552.457397,371.502197 552.711609,375.367004 552.913879,379.231934 
	C556.548035,379.029694 560.417786,379.489105 563.706970,378.317902 
	C565.135559,377.809265 566.407837,373.651855 565.851440,371.690582 
	C565.306091,369.768097 562.479065,368.303925 560.390869,367.090607 
	C559.399048,366.514343 557.796204,366.989685 555.554626,366.988678 
M554.100342,359.894501 
	C556.223022,359.153412 558.629150,358.804626 560.375549,357.542755 
	C561.690979,356.592346 562.643372,354.519409 562.807861,352.852417 
	C562.892639,351.993286 561.059692,350.472290 559.822449,350.056427 
	C557.437866,349.254944 554.860901,349.026001 551.386414,348.377167 
	C552.067383,352.615906 552.656311,356.281769 554.100342,359.894501 
z"/>
<path fill="#000000" opacity="1.000000" stroke="none" 
	d="
M337.934784,371.046783 
	C337.238678,376.520721 336.997955,381.953491 336.743622,387.693390 
	C334.411438,387.693390 331.995941,387.693390 329.137634,387.693390 
	C329.137634,372.081055 329.137634,356.254761 329.137634,339.976288 
	C335.943970,340.357513 342.703949,340.389923 349.363403,341.224365 
	C354.240814,341.835480 357.194183,345.684357 357.838715,350.215485 
	C358.639771,355.846985 358.859619,361.632050 354.921387,366.740387 
	C353.836029,368.148193 353.588684,370.938324 354.140991,372.728943 
	C355.572784,377.370911 357.663757,381.809601 359.498840,386.347229 
	C354.165558,389.624146 351.165558,388.887543 348.697449,383.446198 
	C347.632019,381.097290 346.748077,378.651855 345.967560,376.191345 
	C344.774078,372.428955 342.615448,370.253357 337.934784,371.046783 
M344.522064,349.944885 
	C338.305389,346.976715 334.464783,349.242157 336.749786,362.005463 
	C338.856750,362.005463 341.226746,362.580780 343.090912,361.855652 
	C345.278534,361.004700 348.054047,359.377747 348.719452,357.447754 
	C349.668335,354.695465 349.711487,350.986786 344.522064,349.944885 
z"/>
<path fill="#000000" opacity="1.000000" stroke="none" 
	d="
M640.787720,387.108459 
	C638.116943,387.086121 636.261353,387.038910 635.792847,383.912506 
	C635.419250,381.420044 633.902283,379.114258 633.018127,376.680084 
	C630.589355,369.993744 630.615417,369.984283 623.106262,371.573517 
	C623.106262,375.839630 623.371399,380.181976 622.944519,384.455170 
	C622.816711,385.735291 620.910156,387.545868 619.547852,387.834045 
	C617.316895,388.305969 614.948181,387.871033 614.967712,384.409637 
	C615.048218,370.125366 615.001465,355.840393 615.001465,341.027008 
	C621.820984,341.027008 628.479065,340.422363 634.981750,341.169983 
	C644.521118,342.266724 648.975403,356.768188 642.265320,365.059418 
	C639.568787,368.391357 639.693054,371.097778 641.218445,374.492462 
	C643.149536,378.790222 644.952454,383.145538 647.160706,388.291931 
	C644.785828,387.846283 642.993042,387.509857 640.787720,387.108459 
M623.180481,355.519531 
	C623.180481,357.938660 623.180481,360.357819 623.180481,362.881714 
	C628.194702,362.786713 633.326721,364.584564 635.687805,359.287537 
	C636.660278,357.105896 636.775208,353.398621 635.528503,351.598694 
	C632.528748,347.267914 627.692383,349.170044 623.180481,349.300232 
	C623.180481,351.304047 623.180481,352.943298 623.180481,355.519531 
z"/>
<path fill="#000000" opacity="1.000000" stroke="none" 
	d="
M30.732197,382.805054 
	C25.626143,384.701416 20.883789,386.699493 15.945161,387.868011 
	C12.954543,388.575653 9.659905,387.998383 6.122356,387.998383 
	C6.122356,372.165588 6.122356,356.297333 6.122356,339.407501 
	C13.472305,340.741730 21.015020,341.287506 27.955875,343.622406 
	C33.875027,345.613617 35.402325,351.906586 36.326000,357.641632 
	C37.765591,366.579926 37.908733,375.347961 30.732197,382.805054 
M14.693111,378.777069 
	C23.577122,379.416229 25.627077,377.752838 27.768974,368.166992 
	C29.897526,358.640900 26.135956,351.115509 18.529257,349.444489 
	C15.348834,348.745789 13.876781,349.548798 13.952456,353.069855 
	C14.131334,361.392822 14.087795,369.720581 14.693111,378.777069 
z"/>
<path fill="#000000" opacity="1.000000" stroke="none" 
	d="
M113.001595,355.006226 
	C113.001595,350.200836 113.001595,345.893890 113.001595,341.277191 
	C115.921730,341.277191 118.655159,341.277191 121.750572,341.277191 
	C121.750572,348.040161 121.750572,354.963226 121.750572,361.905396 
	C129.037323,361.448608 129.972305,359.980865 135.185089,341.206696 
	C137.549454,341.206696 139.984940,341.206696 142.650330,341.206696 
	C144.146225,348.140137 141.832764,354.395172 138.357971,360.156311 
	C135.878891,364.266541 135.911407,367.687134 138.236542,371.826721 
	C140.894806,376.559387 142.824066,381.701508 145.066605,386.658020 
	C138.512604,389.658630 135.609726,388.712708 132.976791,382.842743 
	C131.324860,379.159882 129.869522,375.388824 128.378265,371.783722 
	C122.868065,371.136322 121.319778,373.668335 121.931534,378.571411 
	C122.296234,381.494354 121.998398,384.499969 121.998398,387.731964 
	C119.013504,387.731964 116.278038,387.731964 113.001595,387.731964 
	C113.001595,377.015259 113.001595,366.259979 113.001595,355.006226 
z"/>
<path fill="#000000" opacity="1.000000" stroke="none" 
	d="
M938.001526,363.000183 
	C938.001526,357.674927 938.462219,352.792969 937.878052,348.039429 
	C937.232056,342.782684 939.152405,340.880707 944.190613,340.105011 
	C951.601562,338.963959 962.661377,342.909576 965.917664,349.519775 
	C970.722656,359.273743 970.603699,369.491058 966.048340,379.362274 
	C962.969421,386.034241 956.460449,387.697540 950.001770,387.878082 
	C937.440430,388.229218 937.838806,389.511597 937.993469,376.478516 
	C938.044800,372.152954 938.001526,367.826294 938.001526,363.000183 
M959.891296,357.918243 
	C956.932312,349.854156 953.742065,347.937561 946.284302,349.715118 
	C946.284302,359.451202 946.284302,369.176575 946.284302,378.847900 
	C956.570923,380.552277 960.928833,373.840210 960.925720,367.550598 
	C960.924316,364.617523 960.310791,361.684723 959.891296,357.918243 
z"/>
<path fill="#000000" opacity="1.000000" stroke="none" 
	d="
M316.824036,387.998444 
	C308.724060,387.998444 301.106873,387.998444 293.247528,387.998444 
	C293.247528,372.313019 293.247528,356.927582 293.247528,341.228699 
	C302.928772,341.228699 312.649200,341.228699 322.393982,341.228699 
	C323.759003,348.020569 322.989197,348.990692 316.105927,348.997620 
	C311.626221,349.002136 307.146545,348.998444 302.332947,348.998444 
	C302.332947,352.517883 302.332947,355.920715 302.332947,359.722229 
	C306.824799,359.722229 311.562317,359.722229 316.648987,359.722229 
	C316.648987,362.497406 316.648987,364.902344 316.648987,367.888794 
	C312.096954,367.888794 307.233276,367.888794 302.192932,367.888794 
	C302.192932,371.736633 302.192932,375.019653 302.192932,378.856262 
	C308.915253,378.856262 315.788727,378.856262 322.588135,378.856262 
	C323.504211,387.934509 323.504211,387.934509 316.824036,387.998444 
z"/>
<path fill="#000000" opacity="1.000000" stroke="none" 
	d="
M663.340698,340.002075 
	C676.311035,339.443848 679.086243,345.091095 681.622253,356.433380 
	C683.369629,364.248505 682.863953,372.515961 679.096191,380.103668 
	C676.560364,385.210693 672.890503,388.382263 666.816956,388.310425 
	C660.548706,388.236267 655.421875,386.124725 652.666504,380.305725 
	C647.129028,368.611115 647.312561,356.788635 653.934631,345.688416 
	C655.553589,342.974731 659.844482,341.855072 663.340698,340.002075 
M667.895630,348.611450 
	C666.114990,349.062378 664.117432,349.139893 662.590454,350.027313 
	C655.050354,354.409241 656.710876,374.543762 661.307983,378.369598 
	C662.836792,379.641876 667.266052,379.693420 668.607239,378.430969 
	C671.014832,376.164825 673.062866,372.619415 673.521973,369.363342 
	C674.543640,362.116669 675.121094,354.559296 667.895630,348.611450 
z"/>
<path fill="#000000" opacity="1.000000" stroke="none" 
	d="
M256.994354,376.980103 
	C256.999115,365.164429 257.002594,353.846405 257.015350,342.528412 
	C257.015717,342.210175 257.115295,341.892090 257.223419,341.247253 
	C259.559387,341.247253 261.967773,341.247253 264.740356,341.247253 
	C264.740356,347.923828 264.740356,354.848145 264.740356,361.770386 
	C272.914062,361.777802 277.326752,354.940521 278.200867,341.248108 
	C280.938354,341.248108 283.698944,341.248108 286.891235,341.248108 
	C286.968628,348.193207 285.398285,354.740997 281.762817,360.582092 
	C279.508972,364.203339 279.547272,367.287659 281.363617,370.974915 
	C283.987061,376.300629 286.191986,381.832489 288.651550,387.450195 
	C279.451752,388.760681 278.844025,388.396393 275.826904,380.798523 
	C275.170990,379.146759 274.218109,377.615326 273.494049,375.987549 
	C272.777374,374.376343 272.177032,372.713379 271.466614,370.924377 
	C260.479279,373.125549 267.125153,382.104095 264.361603,387.727386 
	C262.358032,387.727386 259.954315,387.727386 256.994354,387.727386 
	C256.994354,384.362000 256.994354,380.919891 256.994354,376.980103 
z"/>
<path fill="#000000" opacity="1.000000" stroke="none" 
	d="
M449.124146,388.093628 
	C444.854156,388.137665 441.010193,388.137665 436.933594,388.137665 
	C436.933594,371.235352 436.933594,354.847046 436.933594,338.229980 
	C439.550232,338.229980 441.980377,338.229980 444.943909,338.229980 
	C444.943909,343.686798 444.943909,349.207672 444.943909,355.049255 
	C447.531647,353.863708 449.472870,352.510040 451.598694,352.089325 
	C457.480743,350.925385 461.703583,353.196594 464.436798,358.649506 
	C471.570526,372.881592 462.079132,387.510437 449.124146,388.093628 
M457.008484,367.794189 
	C456.506470,364.683319 455.968689,361.214172 452.017120,361.141327 
	C448.077393,361.068756 445.226257,364.670105 445.107758,369.037079 
	C445.011017,372.601685 445.088074,376.171082 445.088074,379.807251 
	C455.502106,378.051117 456.947723,376.651184 457.008484,367.794189 
z"/>
<path fill="#000000" opacity="1.000000" stroke="none" 
	d="
M227.625458,350.567383 
	C228.245209,348.135345 228.229309,345.846619 229.159210,344.046509 
	C229.864380,342.681488 231.650970,341.396179 233.177917,341.048492 
	C235.390182,340.544769 237.802444,340.919403 240.502533,340.919403 
	C244.575745,356.282440 248.652405,371.658508 252.726761,387.025879 
	C245.951691,389.318451 244.151291,388.703461 242.490967,382.927338 
	C241.762360,380.392548 240.963730,378.484161 237.988922,379.032043 
	C234.749191,379.628693 230.443909,376.928375 228.568344,381.930054 
	C227.840363,383.871307 227.166321,385.832764 226.429260,387.892487 
	C223.835144,387.892487 221.198868,387.892487 217.537399,387.892487 
	C220.878128,375.364594 224.137253,363.142670 227.625458,350.567383 
M236.787323,356.975464 
	C236.248215,355.953491 235.709122,354.931519 234.740128,353.094604 
	C233.482529,358.171021 232.576569,362.258240 231.439377,366.280060 
	C230.557159,369.400146 232.250305,370.578156 234.784958,370.953400 
	C236.379669,371.189514 238.058548,370.857178 239.761536,370.776947 
	C238.787277,366.272736 237.869171,362.028259 236.787323,356.975464 
z"/>
<path fill="#000000" opacity="1.000000" stroke="none" 
	d="
M743.959717,341.001556 
	C747.100098,341.001556 749.746155,341.001556 752.694519,341.001556 
	C752.694519,343.585785 752.694519,345.991852 752.694519,348.792572 
	C746.112488,348.792572 739.362427,348.792572 732.308350,348.792572 
	C732.308350,352.565430 732.308350,355.966980 732.308350,359.974762 
	C735.941650,359.974762 739.717163,360.160706 743.464905,359.918121 
	C746.671143,359.710571 747.841736,360.996613 748.053223,364.078888 
	C748.305115,367.751099 746.217224,368.215210 743.400818,368.091614 
	C742.570190,368.055145 741.736328,368.092865 740.903992,368.096100 
	C730.469666,368.136932 729.968689,368.760071 732.439697,379.001831 
	C738.009033,379.001831 743.659790,379.178192 749.293091,378.941132 
	C753.185913,378.777313 752.984558,381.080322 753.048340,383.749298 
	C753.113892,386.488861 752.683838,388.132751 749.310913,388.058167 
	C741.022156,387.874756 732.726562,387.998169 724.158813,387.998169 
	C724.158813,372.307831 724.158813,356.919220 724.158813,341.001556 
	C730.593933,341.001556 737.029602,341.001556 743.959717,341.001556 
z"/>
<path fill="#000000" opacity="1.000000" stroke="none" 
	d="
M38.990799,385.181976 
	C42.335175,372.041534 45.711174,359.351318 48.981579,346.633942 
	C50.283325,341.571930 55.737843,338.833344 60.423664,341.199036 
	C61.144535,341.562958 61.726570,342.625000 61.955776,343.476501 
	C65.669655,357.273193 69.328873,371.084717 72.947845,384.906647 
	C73.178215,385.786469 72.977821,386.779083 72.977821,387.674866 
	C67.365250,388.636536 62.622719,388.725952 62.747395,381.107452 
	C62.758617,380.421722 60.951870,379.281677 59.862564,379.095703 
	C57.919128,378.764008 55.865734,379.144135 53.882149,378.964050 
	C51.031197,378.705231 49.487419,379.427155 48.619404,382.581360 
	C47.600471,386.283966 44.958153,388.915985 40.533630,387.905304 
	C39.876183,387.755127 39.491142,386.412354 38.990799,385.181976 
M58.063587,361.297943 
	C57.496635,358.825073 56.929684,356.352234 56.362728,353.879364 
	C56.008865,353.938782 55.654999,353.998199 55.301136,354.057587 
	C53.948868,359.491028 52.596600,364.924469 51.170010,370.656555 
	C54.178082,370.656555 56.899925,370.656555 60.343975,370.656555 
	C59.677124,367.584717 59.076008,364.815674 58.063587,361.297943 
z"/>
<path fill="#000000" opacity="1.000000" stroke="none" 
	d="
M908.914062,351.842773 
	C909.116516,350.626770 909.142639,349.784485 909.397278,349.018066 
	C912.250366,340.429382 912.259888,340.432526 921.812134,341.234619 
	C925.808472,356.204895 929.828003,371.261810 933.853943,386.342926 
	C928.592651,389.347076 926.717041,388.933319 924.676514,383.558777 
	C922.688049,378.321167 918.426025,379.219818 914.343689,378.938507 
	C910.534180,378.675964 909.707092,381.011902 908.944946,383.906616 
	C908.291077,386.390350 907.172607,388.498901 903.868347,388.032288 
	C901.004517,387.627869 899.380127,387.219727 900.519226,383.403992 
	C903.592651,373.109070 906.107361,362.647308 908.914062,351.842773 
M919.019592,359.522278 
	C918.345215,357.096375 917.670776,354.670471 916.667236,351.060852 
	C914.823853,358.416229 913.320068,364.416260 911.753296,370.667847 
	C915.408630,370.667847 918.142456,370.667847 921.435486,370.667847 
	C920.583618,366.975861 919.820068,363.666748 919.019592,359.522278 
z"/>
<path fill="#000000" opacity="1.000000" stroke="none" 
	d="
M839.759399,379.157654 
	C838.526123,381.014038 837.535034,382.699799 836.920288,384.513153 
	C835.873840,387.599915 833.664001,388.718170 830.817871,387.855865 
	C829.823853,387.554688 828.490845,385.424866 828.721802,384.471619 
	C832.015869,370.878510 835.447510,357.314941 839.197083,343.841980 
	C839.557434,342.547028 842.172913,341.340881 843.890991,341.080780 
	C846.968872,340.614838 850.058289,340.487915 851.134766,344.913177 
	C853.896912,356.267975 857.036621,367.530853 860.010193,378.834473 
	C860.425598,380.413727 860.940369,382.000824 861.068604,383.611389 
	C861.178894,384.996490 860.802856,386.420288 860.641846,387.826996 
	C858.419861,387.293884 854.426270,387.097351 854.251099,386.175385 
	C852.576233,377.358673 846.087585,378.911499 839.759399,379.157654 
M848.997498,366.489960 
	C847.817322,361.947632 846.637207,357.405334 845.457092,352.863007 
	C845.084473,352.928040 844.711853,352.993042 844.339233,353.058075 
	C842.989136,358.857452 841.639099,364.656860 840.225098,370.730896 
	C843.495361,370.730896 846.574158,370.730896 849.869019,370.730896 
	C849.555054,369.472778 849.288635,368.405151 848.997498,366.489960 
z"/>
<path fill="#000000" opacity="1.000000" stroke="none" 
	d="
M815.853943,350.985474 
	C812.043579,348.535553 807.600830,347.332977 805.430359,351.038788 
	C803.117493,354.987793 807.079102,357.552795 810.371094,359.899384 
	C814.178223,362.613220 817.758972,365.810883 820.845337,369.319794 
	C823.570557,372.418243 825.187622,376.211212 822.907959,380.580658 
	C820.460571,385.271515 816.301392,387.600922 811.455994,387.854431 
	C806.075439,388.135956 800.636719,387.305908 795.063110,386.949585 
	C795.063110,383.911163 795.063110,381.154144 795.063110,377.762634 
	C798.966248,378.349731 802.592590,379.303955 806.218140,379.300659 
	C808.747620,379.298370 811.275818,377.984192 813.804626,377.255981 
	C812.831909,374.968231 812.409180,372.102386 810.756165,370.529694 
	C808.343811,368.234375 804.869263,367.103333 802.166992,365.054565 
	C797.342529,361.396851 795.352600,356.392731 795.632019,350.273071 
	C796.057861,340.945984 810.185120,337.361298 818.108032,341.678223 
	C819.946289,342.679810 821.514160,344.177460 823.707947,345.823059 
	C820.659790,347.331573 821.543884,353.108459 815.853943,350.985474 
z"/>
<path fill="#000000" opacity="1.000000" stroke="none" 
	d="
M590.032349,341.001556 
	C595.831299,341.001556 601.136841,341.001556 606.738403,341.001556 
	C606.738403,343.283112 606.738403,345.356293 606.738403,347.804291 
	C604.114014,348.282562 601.280762,348.798920 598.308472,349.340576 
	C598.308472,359.105499 598.308472,368.856110 598.308472,378.580353 
	C607.094116,379.625092 607.094116,379.625092 606.913818,387.989594 
	C599.382812,387.989594 591.754456,388.515808 584.285767,387.655487 
	C582.161560,387.410797 580.502136,383.131897 578.087708,380.000244 
	C581.257751,380.000244 583.105164,380.171814 584.908264,379.961914 
	C587.977661,379.604675 590.072205,378.299133 589.999756,374.638336 
	C589.868042,367.983429 589.680542,361.304016 590.103882,354.672302 
	C590.412048,349.844574 588.594299,348.290741 584.108398,348.980743 
	C583.303650,349.104523 582.463501,348.998322 581.092896,348.998322 
	C580.633423,346.489136 580.180115,344.013489 579.628662,341.001556 
	C583.285828,341.001556 586.412354,341.001556 590.032349,341.001556 
z"/>
<path fill="#000000" opacity="1.000000" stroke="none" 
	d="
M362.614960,345.342621 
	C361.885315,343.856476 361.393219,342.683533 360.886566,341.475922 
	C369.250244,339.507050 369.572479,339.644379 372.676453,347.167816 
	C374.642883,351.934052 376.521423,356.736542 378.663422,362.081848 
	C380.909637,356.655151 382.903625,351.545319 385.127319,346.537506 
	C388.096649,339.850433 388.615295,339.671997 396.249084,341.508087 
	C391.500183,356.807343 380.155914,370.220703 383.335999,387.783051 
	C380.299438,387.783051 377.873749,387.783051 374.854828,387.783051 
	C375.883575,372.354462 367.728607,359.495117 362.614960,345.342621 
z"/>
<path fill="#000000" opacity="1.000000" stroke="none" 
	d="
M867.001526,370.998535 
	C867.001526,360.856537 867.001526,351.214355 867.001526,341.287720 
	C869.619629,341.287720 872.025940,341.287720 874.809998,341.287720 
	C874.809998,353.786041 874.809998,366.384583 874.809998,379.498169 
	C881.883667,379.498169 888.620605,379.498169 895.138000,379.498169 
	C898.125977,386.985138 897.451660,387.994995 890.003113,387.997833 
	C882.527222,388.000702 875.051392,387.998444 867.001526,387.998444 
	C867.001526,382.359741 867.001526,376.929047 867.001526,370.998535 
z"/>
<path fill="#000000" opacity="1.000000" stroke="none" 
	d="
M687.134521,349.142273 
	C685.894348,346.642883 685.126221,344.148438 684.218994,341.202179 
	C696.135437,341.202179 706.879089,341.202179 717.801575,341.202179 
	C717.801575,343.807434 717.801575,346.211304 717.801575,348.985199 
	C713.685852,348.985199 709.751282,348.985199 705.298767,348.985199 
	C705.298767,360.465027 705.384399,371.582581 705.210510,382.696106 
	C705.182983,384.451355 704.482483,386.958679 703.222595,387.775452 
	C700.485107,389.550293 697.928223,387.570404 697.896240,383.870819 
	C697.814148,374.374084 697.560364,364.861877 697.995667,355.384338 
	C698.232056,350.237823 696.653564,348.302094 691.600464,349.116760 
	C690.301270,349.326263 688.939575,349.147583 687.134521,349.142273 
z"/>
<path fill="#F4F4F4" opacity="1.000000" stroke="none" 
	d="
M939.969116,134.873123 
	C899.473938,134.873123 859.474426,134.852829 819.475037,134.912354 
	C816.336975,134.917038 814.146667,134.858032 813.929810,130.664062 
	C812.682800,106.556183 820.712769,86.046692 838.146240,69.572937 
	C851.766479,56.702507 868.438416,50.223167 887.158264,52.213852 
	C914.741699,55.147114 933.616211,70.597725 945.026611,95.633072 
	C950.641174,107.952034 951.988953,120.827621 950.633728,134.873123 
	C947.319336,134.873123 943.892090,134.873123 939.969116,134.873123 
M917.499390,124.994934 
	C922.998718,124.994911 928.498108,124.970467 933.997253,125.003250 
	C937.822998,125.026054 939.646790,123.057175 940.040161,119.364090 
	C941.346802,107.097939 928.735962,95.080261 915.141785,95.912888 
	C917.124634,100.545090 919.081909,105.117500 921.039185,109.689919 
	C910.225220,98.642746 901.262573,84.908875 882.379944,90.315506 
	C893.812805,102.968002 894.228882,109.884232 894.424744,119.924843 
	C889.450928,113.680908 884.766418,107.774841 880.054688,101.890656 
	C870.951050,90.521523 862.779358,87.311676 849.020020,95.453400 
	C852.390747,101.960297 860.782776,105.763924 860.529602,115.524178 
	C854.882080,110.826340 850.194519,106.901253 845.478271,103.010933 
	C840.274292,98.718193 836.229431,98.598450 831.841309,103.777733 
	C828.879700,107.273239 826.551880,111.585548 824.979126,115.910202 
	C822.806274,121.885002 825.370850,124.990974 831.510864,124.992279 
	C859.840515,124.998283 888.170105,124.994934 917.499390,124.994934 
z"/>
<path fill="#F1F1F1" opacity="1.000000" stroke="none" 
	d="
M985.112305,349.668610 
	C991.025513,348.063904 992.767090,349.280975 995.131958,354.415680 
	C998.038208,360.725555 997.266418,367.042206 995.518799,373.186920 
	C994.785767,375.764160 992.209290,379.248566 990.045593,379.584961 
	C987.880737,379.921539 984.513977,377.353455 982.849609,375.164673 
	C978.155945,368.992004 979.483826,355.505096 985.112305,349.668610 
z"/>
<path fill="#FCFCFC" opacity="1.000000" stroke="none" 
	d="
M700.933167,68.182091 
	C713.569031,87.771713 701.892761,113.313568 682.152832,118.222786 
	C678.668518,119.089310 675.040222,119.836578 671.475647,119.849365 
	C635.479553,119.978516 599.482605,119.883064 563.486694,120.035690 
	C559.325134,120.053337 558.068542,118.846657 558.115723,114.648415 
	C558.327454,95.819183 558.337952,76.984657 558.109985,58.155804 
	C558.057800,53.845085 559.496216,52.899200 563.544861,52.915417 
	C599.207703,53.058235 634.872375,53.148212 670.534302,52.918358 
	C683.337769,52.835835 693.509521,57.200420 700.933167,68.182091 
z"/>
<path fill="#FEFEFE" opacity="1.000000" stroke="none" 
	d="
M303.999359,182.996078 
	C303.999603,163.839233 303.731262,145.176590 304.068665,126.524910 
	C304.481567,103.699043 314.319366,85.395554 331.647705,70.719246 
	C345.164337,59.271305 360.630676,52.833996 378.233093,53.184948 
	C396.823059,53.555584 413.052032,60.620899 426.879395,73.297020 
	C439.823181,85.163116 447.682129,99.698547 450.735474,116.847214 
	C451.571167,121.540680 451.764618,126.392357 451.805908,131.175293 
	C451.936615,146.332977 452.302460,161.509918 451.711456,176.645599 
	C451.263733,188.112595 451.262573,200.069611 447.961548,210.859848 
	C439.619690,238.127151 419.573547,254.006424 392.242676,259.746460 
	C371.623474,264.076904 351.701813,260.599121 334.212921,247.895370 
	C318.132263,236.214554 308.163361,220.527649 305.083221,200.806320 
	C304.194794,195.118256 304.332214,189.269974 303.999359,182.996078 
z"/>
<path fill="#E9E9E9" opacity="1.000000" stroke="none" 
	d="
M193.987167,372.987640 
	C193.987167,370.879028 193.987167,369.245758 193.987167,366.011200 
	C197.951157,367.202698 201.842712,367.547852 204.577911,369.507202 
	C206.190475,370.662323 207.046402,376.251312 206.393738,376.626007 
	C202.946381,378.605316 198.911392,379.561157 193.987167,381.245880 
	C193.987167,377.609955 193.987167,375.536438 193.987167,372.987640 
z"/>
<path fill="#F2F2F2" opacity="1.000000" stroke="none" 
	d="
M204.727661,354.010498 
	C202.478378,358.846008 201.962967,359.075623 194.328400,358.871429 
	C194.328400,355.706177 194.328400,352.527008 194.328400,349.139526 
	C198.657410,348.914673 203.115082,347.857452 204.727661,354.010498 
z"/>
<path fill="#EBEBEB" opacity="1.000000" stroke="none" 
	d="
M97.797165,352.655396 
	C98.095688,361.345428 97.349426,362.248322 89.653549,361.922607 
	C88.140739,361.858551 85.428581,360.734558 85.399055,360.012360 
	C85.256691,356.529846 84.922920,352.451416 86.575989,349.765381 
	C87.350731,348.506531 92.474098,349.784576 95.587532,350.203644 
	C96.355240,350.306976 96.970016,351.546326 97.797165,352.655396 
z"/>
<path fill="#E9E9E9" opacity="1.000000" stroke="none" 
	d="
M556.012451,366.988647 
	C557.796204,366.989685 559.399048,366.514343 560.390869,367.090607 
	C562.479065,368.303925 565.306091,369.768097 565.851440,371.690582 
	C566.407837,373.651855 565.135559,377.809265 563.706970,378.317902 
	C560.417786,379.489105 556.548035,379.029694 552.913818,379.231934 
	C552.711609,375.367004 552.457397,371.502197 552.447144,367.636749 
	C552.446533,367.423462 554.472168,367.204834 556.012451,366.988647 
z"/>
<path fill="#F0F0F0" opacity="1.000000" stroke="none" 
	d="
M553.672852,359.921082 
	C552.656311,356.281769 552.067383,352.615906 551.386414,348.377167 
	C554.860901,349.026001 557.437866,349.254944 559.822449,350.056427 
	C561.059692,350.472290 562.892639,351.993286 562.807861,352.852417 
	C562.643372,354.519409 561.690979,356.592346 560.375549,357.542755 
	C558.629150,358.804626 556.223022,359.153412 553.672852,359.921082 
z"/>
<path fill="#EAEAEA" opacity="1.000000" stroke="none" 
	d="
M344.933472,349.966736 
	C349.711487,350.986786 349.668335,354.695465 348.719452,357.447754 
	C348.054047,359.377747 345.278534,361.004700 343.090912,361.855652 
	C341.226746,362.580780 338.856750,362.005463 336.749786,362.005463 
	C334.464783,349.242157 338.305389,346.976715 344.933472,349.966736 
z"/>
<path fill="#E6E6E6" opacity="1.000000" stroke="none" 
	d="
M623.180481,355.051025 
	C623.180481,352.943298 623.180481,351.304047 623.180481,349.300232 
	C627.692383,349.170044 632.528748,347.267914 635.528503,351.598694 
	C636.775208,353.398621 636.660278,357.105896 635.687805,359.287537 
	C633.326721,364.584564 628.194702,362.786713 623.180481,362.881714 
	C623.180481,360.357819 623.180481,357.938660 623.180481,355.051025 
z"/>
<path fill="#F4F4F4" opacity="1.000000" stroke="none" 
	d="
M14.413652,378.411743 
	C14.087795,369.720581 14.131334,361.392822 13.952456,353.069855 
	C13.876781,349.548798 15.348834,348.745789 18.529257,349.444489 
	C26.135956,351.115509 29.897526,358.640900 27.768974,368.166992 
	C25.627077,377.752838 23.577122,379.416229 14.413652,378.411743 
z"/>
<path fill="#F4F4F4" opacity="1.000000" stroke="none" 
	d="
M959.933044,358.335022 
	C960.310791,361.684723 960.924316,364.617523 960.925720,367.550598 
	C960.928833,373.840210 956.570923,380.552277 946.284302,378.847900 
	C946.284302,369.176575 946.284302,359.451202 946.284302,349.715118 
	C953.742065,347.937561 956.932312,349.854156 959.933044,358.335022 
z"/>
<path fill="#F2F2F2" opacity="1.000000" stroke="none" 
	d="
M668.225342,348.796875 
	C675.121094,354.559296 674.543640,362.116669 673.521973,369.363342 
	C673.062866,372.619415 671.014832,376.164825 668.607239,378.430969 
	C667.266052,379.693420 662.836792,379.641876 661.307983,378.369598 
	C656.710876,374.543762 655.050354,354.409241 662.590454,350.027313 
	C664.117432,349.139893 666.114990,349.062378 668.225342,348.796875 
z"/>
<path fill="#EBEBEB" opacity="1.000000" stroke="none" 
	d="
M457.008667,368.218689 
	C456.947723,376.651184 455.502106,378.051117 445.088074,379.807251 
	C445.088074,376.171082 445.011017,372.601685 445.107758,369.037079 
	C445.226257,364.670105 448.077393,361.068756 452.017120,361.141327 
	C455.968689,361.214172 456.506470,364.683319 457.008667,368.218689 
z"/>
<path fill="#DEDEDE" opacity="1.000000" stroke="none" 
	d="
M236.869202,357.379608 
	C237.869171,362.028259 238.787277,366.272736 239.761536,370.776947 
	C238.058548,370.857178 236.379669,371.189514 234.784958,370.953400 
	C232.250305,370.578156 230.557159,369.400146 231.439377,366.280060 
	C232.576569,362.258240 233.482529,358.171021 234.740128,353.094604 
	C235.709122,354.931519 236.248215,355.953491 236.869202,357.379608 
z"/>
<path fill="#DBDBDB" opacity="1.000000" stroke="none" 
	d="
M58.269241,361.672302 
	C59.076008,364.815674 59.677124,367.584717 60.343975,370.656555 
	C56.899925,370.656555 54.178082,370.656555 51.170010,370.656555 
	C52.596600,364.924469 53.948868,359.491028 55.301136,354.057587 
	C55.654999,353.998199 56.008865,353.938782 56.362728,353.879364 
	C56.929684,356.352234 57.496635,358.825073 58.269241,361.672302 
z"/>
<path fill="#E2E2E2" opacity="1.000000" stroke="none" 
	d="
M919.038086,359.939941 
	C919.820068,363.666748 920.583618,366.975861 921.435486,370.667847 
	C918.142456,370.667847 915.408630,370.667847 911.753296,370.667847 
	C913.320068,364.416260 914.823853,358.416229 916.667236,351.060852 
	C917.670776,354.670471 918.345215,357.096375 919.038086,359.939941 
z"/>
<path fill="#E3E3E3" opacity="1.000000" stroke="none" 
	d="
M849.009888,366.913757 
	C849.288635,368.405151 849.555054,369.472778 849.869019,370.730896 
	C846.574158,370.730896 843.495361,370.730896 840.225098,370.730896 
	C841.639099,364.656860 842.989136,358.857452 844.339233,353.058075 
	C844.711853,352.993042 845.084473,352.928040 845.457092,352.863007 
	C846.637207,357.405334 847.817322,361.947632 849.009888,366.913757 
z"/>
<path fill="#000000" opacity="1.000000" stroke="none" 
	d="
M916.999573,124.994934 
	C888.170105,124.994934 859.840515,124.998283 831.510864,124.992279 
	C825.370850,124.990974 822.806274,121.885002 824.979126,115.910202 
	C826.551880,111.585548 828.879700,107.273239 831.841309,103.777733 
	C836.229431,98.598450 840.274292,98.718193 845.478271,103.010933 
	C850.194519,106.901253 854.882080,110.826340 860.529602,115.524178 
	C860.782776,105.763924 852.390747,101.960297 849.020020,95.453400 
	C862.779358,87.311676 870.951050,90.521523 880.054688,101.890656 
	C884.766418,107.774841 889.450928,113.680908 894.424744,119.924843 
	C894.228882,109.884232 893.812805,102.968002 882.379944,90.315506 
	C901.262573,84.908875 910.225220,98.642746 921.039185,109.689919 
	C919.081909,105.117500 917.124634,100.545090 915.141785,95.912888 
	C928.735962,95.080261 941.346802,107.097939 940.040161,119.364090 
	C939.646790,123.057175 937.822998,125.026054 933.997253,125.003250 
	C928.498108,124.970467 922.998718,124.994911 916.999573,124.994934 
z"/>
</svg>