<svg version="1.1" id="Layer_1" xmlns="http://www.w3.org/2000/svg" xmlns:xlink="http://www.w3.org/1999/xlink" x="0px" y="0px"
	 width="100%" viewBox="0 0 1003 402" enable-background="new 0 0 1003 402" xml:space="preserve">
<path fill="#FEFDFE" opacity="1.000000" stroke="none" 
	d="
M1004.000000,372.000000 
	C1004.000000,382.325317 1004.000000,392.650635 1004.000000,403.000000 
	C827.311890,403.000000 650.623779,403.000000 473.585632,402.614319 
	C482.234344,401.705658 488.118378,396.995605 490.785645,388.544586 
	C493.734314,379.201813 496.322571,369.744751 499.030365,360.326721 
	C499.825378,357.561615 500.492981,354.759918 501.239288,351.896942 
	C492.590302,350.943268 492.673584,350.963257 490.908569,358.319031 
	C489.320465,364.937531 487.522522,371.505707 485.817169,378.096069 
	C482.783691,371.298096 480.667450,364.537750 478.791656,357.711365 
	C476.831360,350.577454 476.923553,350.544525 468.261108,352.074585 
	C471.472961,362.364502 474.553223,372.629822 477.954773,382.787567 
	C478.615601,384.760956 480.527893,386.315216 482.372131,388.729401 
	C480.470886,394.125885 474.268890,393.835510 468.494080,395.014587 
	C468.670044,397.792023 468.835022,400.395996 469.000000,403.000000 
	C313.121063,403.000000 157.242142,403.000000 1.000000,403.000000 
	C1.000000,371.979523 1.000000,340.957611 1.465996,309.414398 
	C17.851822,308.893097 33.771652,308.893097 49.862934,308.893097 
	C49.862934,306.378326 49.862930,304.557220 49.862934,302.736145 
	C49.862957,244.411179 49.956429,186.085938 49.798748,127.761398 
	C49.758202,112.764137 53.725521,99.098801 62.093155,86.847939 
	C77.484856,64.313301 98.593086,51.022095 126.326714,52.492420 
	C166.503265,54.622421 197.170212,88.355827 197.158569,128.601257 
	C197.141739,186.759491 197.137329,244.917725 197.127670,303.075958 
	C197.127380,304.858429 197.127640,306.640900 197.127640,308.587708 
	C213.719009,308.587708 229.764862,308.587708 246.003967,308.587708 
	C246.003967,306.436829 246.003952,304.617432 246.003952,302.798065 
	C246.003967,244.473083 245.936066,186.147980 246.047943,127.823219 
	C246.078979,111.640343 243.183884,96.138741 237.356293,81.053123 
	C215.229935,23.775494 151.355469,-9.194087 92.292969,7.336330 
	C47.274178,19.936193 18.355978,49.593632 5.163630,94.477478 
	C3.653395,99.615685 2.382089,104.824127 1.000000,110.000000 
	C1.000000,73.682846 1.000000,37.365688 1.000000,1.000000 
	C290.688110,1.000000 580.376221,1.000000 870.418457,1.395159 
	C867.990356,2.214396 865.205078,2.619391 862.426331,3.065526 
	C836.019592,7.305126 813.674683,19.298454 795.730408,39.021595 
	C773.457275,63.502876 763.281006,92.798767 763.203918,125.643089 
	C763.064270,185.130386 763.162354,244.618225 763.173950,304.105835 
	C763.174255,305.557617 763.323730,307.009399 763.414673,308.662842 
	C779.941284,308.662842 796.156067,308.662842 812.774048,308.662842 
	C812.774048,266.607941 812.774048,224.863998 812.774048,182.846802 
	C858.729065,182.846802 904.280151,182.846802 950.434143,182.846802 
	C950.434143,224.926193 950.434143,266.793671 950.434143,308.689636 
	C967.137695,308.689636 983.237244,308.689636 999.839539,308.689636 
	C999.839539,306.656372 999.839539,304.867981 999.839539,303.079620 
	C999.839539,244.591797 999.815125,186.103973 999.854248,127.616180 
	C999.865967,110.144882 997.221741,93.145653 990.620667,76.939255 
	C974.424927,37.176483 945.419800,12.549343 903.249756,3.737216 
	C898.196533,2.681263 893.084656,1.905594 888.000000,1.000005 
	C926.630859,1.000000 965.261719,1.000000 1004.000000,1.000000 
	C1004.000000,119.021416 1004.000000,237.042862 1003.637451,355.382080 
	C1003.180786,354.879364 1003.122009,354.052979 1002.986877,353.239288 
	C1001.587524,344.814667 995.820984,339.242737 988.264648,338.997986 
	C980.006836,338.730499 974.095825,342.914856 972.703674,351.901245 
	C971.560669,359.278931 971.430603,367.033142 972.314331,374.446045 
	C973.277771,382.527557 979.242371,386.919769 986.984619,387.222748 
	C994.560608,387.519287 999.559326,383.755859 1002.274658,375.795715 
	C1002.721252,374.486633 1003.418579,373.263092 1004.000000,372.000000 
M673.636597,281.887939 
	C678.363281,289.718292 683.177002,297.498138 687.767212,305.407715 
	C689.271667,308.000183 691.004272,309.026733 694.087097,308.989014 
	C708.415955,308.813721 722.748291,308.913727 737.079346,308.915070 
	C740.490784,308.915405 743.902283,308.915161 748.345703,308.915161 
	C719.599792,261.526642 691.401978,215.041580 662.678894,167.690720 
	C666.695496,167.690720 669.629822,167.718567 672.563538,167.686584 
	C726.751709,167.095840 764.737854,118.411247 751.832825,66.099312 
	C742.719238,29.156498 708.560547,2.294456 670.606201,2.278998 
	C618.614380,2.257823 566.622559,2.272694 514.630737,2.272120 
	C512.703430,2.272098 510.776093,2.272117 508.716492,2.272117 
	C508.716492,104.849525 508.716492,206.732040 508.716492,308.727295 
	C525.022278,308.727295 540.973694,308.727295 557.583496,308.727295 
	C557.583496,261.675507 557.583496,214.811569 557.583496,167.695511 
	C572.715881,167.695511 587.192261,167.602982 601.663574,167.833221 
	C603.173157,167.857224 605.193542,169.461990 606.066528,170.889923 
	C628.533997,207.638519 650.880310,244.461166 673.636597,281.887939 
M305.190582,286.323608 
	C325.809875,300.985931 348.630310,309.272125 374.048676,309.597687 
	C409.159363,310.047455 439.148315,297.358093 463.831116,272.739502 
	C484.811432,251.813766 497.396545,226.406342 498.847015,196.551559 
	C499.945526,173.941025 499.624695,151.255844 499.700531,128.603088 
	C499.761963,110.241768 496.067352,92.648933 488.604156,75.780411 
	C458.803864,8.425177 374.381165,-17.806383 312.282837,21.690136 
	C276.075226,44.719307 255.942291,78.111458 253.850159,121.250854 
	C252.785721,143.199005 253.411469,165.233459 253.463852,187.228470 
	C253.477310,192.874130 253.807068,198.582138 254.684662,204.152298 
	C260.056244,238.245911 277.400238,265.106995 305.190582,286.323608 
M913.156372,238.380341 
	C907.182678,228.716522 901.468079,218.937943 900.273987,206.281967 
	C894.897278,212.533203 890.464783,217.686722 885.812683,223.095520 
	C885.067444,210.519913 880.757751,200.317688 867.492615,195.575897 
	C867.492615,199.515015 867.768677,202.839539 867.443970,206.104294 
	C866.159546,219.018234 860.023376,229.784363 851.938721,239.539444 
	C839.361816,254.715027 838.637939,274.619110 850.343933,288.479614 
	C861.373779,301.539581 877.456909,306.479156 892.976990,301.573425 
	C907.876038,296.864014 918.418030,283.495972 919.448120,267.493530 
	C920.089844,257.524658 918.201782,247.956665 913.156372,238.380341 
M215.072052,375.291656 
	C215.892014,366.583160 211.248566,362.585205 202.736526,361.922791 
	C210.446426,359.360229 212.635193,356.519897 212.053467,350.034302 
	C211.518753,344.072876 207.990585,340.525055 201.108276,339.992706 
	C195.695999,339.574066 190.225449,339.908600 184.632843,339.908600 
	C184.632843,355.588562 184.632843,370.968201 184.632843,386.575531 
	C191.524780,386.575531 198.176605,387.015900 204.741165,386.447876 
	C210.926453,385.912689 214.001663,382.259369 215.072052,375.291656 
M357.105591,350.515717 
	C356.089752,345.619019 353.582336,341.373077 348.564514,340.622894 
	C341.639008,339.587555 334.536438,339.736359 327.686646,339.387024 
	C327.686646,355.849457 327.686646,371.235107 327.686646,386.469971 
	C330.484680,386.469971 332.875549,386.469971 335.713257,386.469971 
	C335.713257,380.656830 335.713257,375.246399 335.713257,370.133911 
	C341.296753,368.159607 343.907898,370.380646 345.046173,375.291992 
	C345.489868,377.206177 346.458038,378.994873 347.136414,380.859253 
	C349.580048,387.575409 350.926392,388.203400 358.572266,385.905518 
	C356.416107,380.685364 354.173248,375.525360 352.201599,370.263763 
	C351.785919,369.154419 351.851257,367.129791 352.568970,366.450592 
	C357.043884,362.216003 357.599030,356.943024 357.105591,350.515717 
M105.835083,349.245789 
	C104.264069,344.480408 101.303017,340.665588 96.214767,340.221680 
	C89.656593,339.649414 83.010704,340.082306 76.486313,340.082306 
	C76.486313,355.673615 76.486313,371.098846 76.486313,386.548340 
	C79.219551,386.548340 81.618469,386.548340 84.522293,386.548340 
	C84.522293,380.813538 84.522293,375.391266 84.522293,370.173981 
	C90.015396,368.262695 92.631470,370.145935 93.927521,375.161499 
	C94.954636,379.136292 96.743942,382.914154 98.125252,386.594147 
	C101.380188,386.594147 104.295708,386.594147 107.700447,386.594147 
	C105.041542,380.083557 102.548401,373.978882 100.016296,367.778778 
	C105.849518,363.044952 106.826897,356.859985 105.835083,349.245789 
M26.285927,342.028198 
	C19.218988,340.922058 12.152049,339.815948 4.711902,338.651428 
	C4.711902,355.574677 4.711902,370.952240 4.711902,387.269165 
	C10.890104,386.762909 16.909929,386.893799 22.590569,385.569580 
	C25.988638,384.777466 29.597986,382.304749 31.818123,379.545868 
	C37.774654,372.144012 38.200256,348.555573 26.285927,342.028198 
M556.335571,387.000488 
	C559.282288,386.655365 562.294250,386.585785 565.161682,385.906219 
	C570.673584,384.600037 574.214905,379.451691 573.997192,373.616119 
	C573.763306,367.346527 570.464539,363.780670 564.010254,362.748932 
	C562.960205,362.581116 561.942261,362.212463 560.195312,361.745911 
	C567.444641,359.920074 570.807129,356.604218 570.987915,351.706299 
	C571.168396,346.816986 567.906677,341.627411 562.609985,340.745178 
	C556.229187,339.682404 549.629211,339.934692 543.270020,339.624817 
	C543.270020,355.912170 543.270020,371.007904 543.270020,387.000488 
	C547.486023,387.000488 551.436768,387.000488 556.335571,387.000488 
M137.862488,358.477966 
	C140.650452,352.608429 142.731049,346.603363 141.731903,339.966217 
	C138.999466,339.966217 136.594559,339.966217 134.254974,339.966217 
	C131.986221,355.147827 128.957764,360.165527 120.727524,361.991608 
	C120.727524,354.674194 120.727524,347.440308 120.727524,339.912964 
	C117.702057,339.912964 115.129036,339.912964 112.494720,339.912964 
	C112.494720,355.625702 112.494720,371.034851 112.494720,386.657379 
	C115.223198,386.657379 117.645760,386.657379 120.630302,386.657379 
	C120.630302,381.514313 120.630302,376.593842 120.630302,371.568390 
	C123.149963,370.943756 125.164688,370.444336 127.312996,369.911774 
	C128.773132,373.608185 130.100479,377.003296 131.454132,380.387909 
	C134.260101,387.403870 135.833023,388.137146 143.943069,385.997864 
	C141.469757,380.526154 139.377075,374.902374 136.455551,369.748444 
	C134.127182,365.640869 134.399612,362.417053 137.862488,358.477966 
M635.969788,385.670868 
	C638.950073,386.124268 641.930359,386.577667 645.979736,387.193695 
	C643.314575,380.886597 641.458740,376.118988 639.285583,371.500671 
	C638.088623,368.956940 638.090210,367.517212 640.360168,365.179993 
	C647.858093,357.459808 644.321167,341.988037 634.551819,340.332092 
	C627.987854,339.219452 621.082520,340.120300 614.006470,340.120300 
	C614.006470,354.801788 614.032227,369.094391 613.987793,383.386780 
	C613.977051,386.831543 616.333801,386.777405 618.724426,387.000549 
	C621.837036,387.291046 622.305786,385.539398 622.250732,383.006744 
	C622.154480,378.581085 622.223938,374.151855 622.223938,369.829803 
	C629.516296,368.823914 629.557495,368.807556 631.895020,374.694275 
	C633.234070,378.066559 634.413269,381.502228 635.969788,385.670868 
M937.000793,371.493439 
	C937.000793,373.488617 937.000732,375.483795 937.000732,377.478973 
	C937.000732,387.194550 937.010254,387.394287 946.843140,386.928497 
	C953.472046,386.614471 960.045837,385.679871 964.369812,379.525421 
	C969.556458,372.143036 969.552307,354.890503 964.254517,347.290985 
	C959.350952,340.257202 948.163757,337.495636 937.000793,340.688721 
	C937.000793,350.578369 937.000793,360.536835 937.000793,371.493439 
M255.979172,359.500366 
	C255.979172,368.585938 255.979172,377.671509 255.979172,386.544434 
	C259.065186,386.544434 261.330048,386.544434 263.937134,386.544434 
	C263.937134,383.428040 264.244873,380.587219 263.871796,377.838837 
	C263.138885,372.439209 265.119598,369.791077 270.819122,370.117096 
	C272.204529,373.410858 273.612488,376.763275 275.024414,380.114014 
	C278.316132,387.925903 278.358337,387.946747 287.495483,386.151093 
	C284.708374,380.048340 282.044708,374.000214 279.182526,368.047516 
	C277.916016,365.413513 277.889893,363.399597 279.741150,360.813568 
	C284.114441,354.704376 285.397858,347.529114 285.855133,340.032166 
	C282.872559,340.032166 280.159576,340.032166 277.500000,340.032166 
	C275.979858,354.470856 272.374939,360.437286 264.054138,361.933685 
	C264.054138,354.630829 264.054138,347.393005 264.054138,339.896881 
	C261.157379,339.896881 258.729340,339.896881 255.979233,339.896881 
	C255.979233,346.206726 255.979233,352.353607 255.979172,359.500366 
M652.765625,381.626617 
	C661.197876,390.686157 674.398865,389.068634 678.633972,377.911316 
	C682.507507,367.706543 682.394714,357.101013 677.795776,346.952362 
	C675.279968,341.400696 670.574219,338.975708 664.542480,338.992035 
	C658.505554,339.008362 653.576904,341.607391 651.374695,347.047119 
	C646.790588,358.370605 646.610962,369.876160 652.765625,381.626617 
M321.794647,345.317474 
	C321.794647,343.543915 321.794647,341.770355 321.794647,339.893066 
	C311.598267,339.893066 302.005157,339.893066 292.254303,339.893066 
	C292.254303,355.551514 292.254303,370.955475 292.254303,386.495239 
	C302.234283,386.495239 311.950714,386.495239 321.530762,386.495239 
	C321.530762,383.714508 321.530762,381.304016 321.530762,378.344482 
	C314.323364,378.344482 307.415466,378.344482 300.452820,378.344482 
	C300.452820,374.389923 300.452820,371.017609 300.452820,367.074860 
	C305.912872,367.074860 310.975281,367.074860 315.855042,367.074860 
	C315.855042,364.073334 315.855042,361.677734 315.855042,358.974182 
	C310.543793,358.974182 305.597870,358.974182 300.399628,358.974182 
	C300.399628,355.248749 300.399628,351.850555 300.399628,347.988312 
	C306.337158,347.988312 312.130432,348.092743 317.914490,347.908508 
	C319.220001,347.866913 320.493530,346.820099 321.794647,345.317474 
M435.680298,376.481384 
	C435.680298,379.898712 435.680298,383.316040 435.680298,386.785248 
	C438.693115,387.032593 440.994720,387.316925 443.303406,387.395813 
	C460.115204,387.970459 469.452118,375.192993 463.993561,359.123627 
	C461.991821,353.230591 456.906281,349.885284 450.884216,351.112488 
	C448.502716,351.597809 446.379181,353.349030 443.791077,354.705811 
	C443.791077,348.783325 443.791077,343.039215 443.791077,337.292572 
	C440.904907,337.292572 438.378540,337.292572 435.680389,337.292572 
	C435.680389,350.263397 435.680389,362.874268 435.680298,376.481384 
M226.875305,349.185791 
	C223.530121,361.565063 220.184921,373.944336 216.751236,386.651093 
	C220.266388,386.651093 222.881897,386.651093 225.438629,386.651093 
	C228.092636,376.768829 228.192871,376.715210 240.844116,378.356567 
	C241.551559,381.114655 242.276749,383.941986 242.947113,386.555603 
	C246.036926,386.555603 248.613586,386.555603 251.652588,386.555603 
	C247.460541,370.757385 243.386566,355.404175 239.259888,339.852295 
	C235.966507,339.852295 232.850906,339.852295 229.313171,339.852295 
	C228.569412,342.678619 227.817764,345.534912 226.875305,349.185791 
M66.724083,386.868195 
	C68.447716,386.868195 70.171349,386.868195 72.400337,386.868195 
	C68.067917,370.571838 63.964108,355.135376 59.918797,339.918945 
	C56.168732,339.918945 53.074440,339.918945 49.832077,339.918945 
	C45.716824,355.501007 41.663357,370.849121 37.599850,386.235229 
	C44.990570,387.553223 44.990570,387.553223 48.866421,377.889618 
	C51.726181,377.889618 54.727520,378.131927 57.671528,377.824768 
	C60.932819,377.484497 61.943661,378.907928 62.494568,381.867218 
	C62.848862,383.770355 62.133976,387.006958 66.724083,386.868195 
M743.227051,367.190063 
	C750.186768,366.466461 745.559387,362.100525 746.313232,358.907043 
	C740.786011,358.907043 735.841492,358.907043 730.723999,358.907043 
	C730.723999,355.165802 730.723999,351.761932 730.723999,347.898010 
	C737.906921,347.898010 744.810303,347.898010 751.701904,347.898010 
	C751.701904,345.029755 751.701904,342.631317 751.701904,340.215027 
	C741.868591,340.215027 732.337891,340.215027 722.765869,340.215027 
	C722.765869,355.895081 722.765869,371.152069 722.765869,386.536804 
	C732.512817,386.536804 742.045044,386.536804 751.629211,386.536804 
	C751.629211,383.693909 751.629211,381.320404 751.629211,378.516724 
	C744.516235,378.516724 737.770142,378.516724 731.127808,378.516724 
	C728.940613,367.629761 729.366882,367.068665 739.293823,367.189728 
	C740.291443,367.201904 741.289246,367.191315 743.227051,367.190063 
M835.999146,351.557831 
	C832.969360,363.056580 829.939575,374.555359 826.912476,386.044128 
	C833.444580,387.856384 834.636841,387.348907 836.200989,381.894348 
	C837.028259,379.009613 838.210083,377.210114 841.679626,377.937500 
	C843.434753,378.305450 845.348816,378.168518 847.157898,377.965424 
	C849.814026,377.667267 850.995911,378.812683 851.688782,381.298920 
	C853.489563,387.759918 853.922729,387.920105 861.143433,386.212036 
	C857.819885,373.556458 854.372437,360.937805 851.219421,348.245972 
	C849.065918,339.577576 849.249451,339.529358 840.267822,340.013519 
	C839.947998,340.030762 839.636475,340.204407 839.074524,340.383881 
	C838.151062,343.756104 837.190430,347.264038 835.999146,351.557831 
M912.047241,339.934357 
	C911.365662,340.968048 910.386658,341.914185 910.052185,343.050049 
	C908.278503,349.074219 906.601135,355.128906 905.014832,361.205505 
	C902.855225,369.477783 900.808044,377.779388 898.714966,386.059235 
	C905.640991,387.811401 906.559692,387.467560 908.076782,381.726227 
	C908.836853,378.849915 910.026001,377.443665 913.194092,377.945496 
	C915.142090,378.254059 917.282654,377.620544 919.142639,378.125336 
	C920.643433,378.532623 922.620056,379.750641 923.063660,381.057617 
	C925.296997,387.637787 925.778931,388.016144 932.829895,385.864594 
	C928.777527,370.600098 924.723938,355.330933 920.600830,339.799866 
	C917.880493,339.799866 915.401733,339.799866 912.047241,339.934357 
M812.607361,386.610321 
	C820.613098,383.872925 824.271973,379.051849 821.968872,371.909729 
	C820.721558,368.041687 817.078674,364.726746 813.952087,361.756134 
	C811.611694,359.532440 807.978027,358.659851 805.671875,356.413727 
	C804.223206,355.002838 803.083374,351.669128 803.797485,350.111481 
	C804.462402,348.661224 807.849487,347.627747 809.884827,347.845367 
	C812.488281,348.123718 814.938110,349.839630 817.562134,350.983154 
	C819.135193,349.061646 820.783203,347.048553 822.555969,344.883057 
	C820.824036,343.520538 819.507935,342.259033 817.988953,341.328644 
	C810.766418,336.904633 799.999573,338.818878 796.062439,345.145508 
	C792.446594,350.955872 795.381775,360.356445 802.466003,365.035034 
	C804.941772,366.670135 808.087646,367.432129 810.249878,369.354828 
	C811.927368,370.846466 813.578552,373.672546 813.294250,375.621460 
	C813.094116,376.993439 809.595520,378.862640 807.624084,378.799927 
	C803.122498,378.656860 798.654297,377.463776 794.060791,376.678131 
	C793.944153,379.326111 793.821899,382.100800 793.647400,386.062805 
	C800.013306,386.354156 805.898987,386.623505 812.607361,386.610321 
M373.678894,375.626770 
	C373.678894,379.255280 373.678894,382.883759 373.678894,386.601501 
	C376.576874,386.601501 379.002625,386.601501 382.292908,386.601501 
	C378.434387,368.739990 390.848389,355.579315 395.168152,340.018188 
	C387.032227,339.119110 387.024200,339.115784 384.248291,345.827789 
	C382.199310,350.782013 380.174683,355.746338 377.684448,361.814209 
	C375.189423,355.613922 373.208618,350.706055 371.239075,345.793640 
	C368.397125,338.705170 368.400604,338.703766 359.935547,340.271942 
	C362.194061,345.462830 364.553772,350.523468 366.609650,355.704681 
	C369.100220,361.981354 371.333954,368.359924 373.678894,375.626770 
M585.380310,378.993439 
	C583.590515,378.993439 581.800659,378.993439 578.299927,378.993439 
	C579.657532,382.112366 580.525452,386.352936 581.698486,386.439087 
	C589.737183,387.029358 597.839844,386.748810 605.900696,386.748810 
	C605.900696,383.658325 605.900696,381.303650 605.900696,378.556274 
	C602.714661,378.556274 599.966064,378.556274 597.193848,378.556274 
	C597.193848,368.074463 597.193848,358.000549 597.193848,347.689453 
	C600.345642,347.506989 603.218201,347.340668 606.090027,347.174377 
	C606.090027,344.524872 606.090027,342.439178 606.090027,340.305145 
	C597.005676,340.305145 588.177856,340.305145 579.127136,340.305145 
	C579.360291,342.945343 579.543945,345.025269 579.761658,347.490753 
	C581.840820,347.490753 583.634888,347.539215 585.425232,347.478790 
	C587.786316,347.399109 589.098206,348.040771 589.047852,350.843414 
	C588.898621,359.158966 589.092102,367.481445 588.874207,375.793945 
	C588.845825,376.876709 587.192810,377.916901 585.380310,378.993439 
M873.999207,372.368774 
	C873.999207,361.613159 873.999207,350.857544 873.999207,340.127930 
	C871.050598,340.127930 868.665466,340.127930 866.250244,340.127930 
	C866.250244,355.844147 866.250244,371.224670 866.250244,386.998474 
	C874.100952,386.998474 881.708496,387.001984 889.316040,386.997467 
	C896.282959,386.993317 896.882874,386.107697 894.566406,378.629761 
	C887.960999,378.629761 881.209167,378.629761 873.999207,378.629761 
	C873.999207,376.566864 873.999207,374.947021 873.999207,372.368774 
M704.428284,359.528259 
	C704.428284,355.768005 704.428284,352.007721 704.428284,347.796753 
	C709.007812,347.796753 712.920227,347.796753 716.817871,347.796753 
	C716.817871,345.053802 716.817871,342.775513 716.817871,340.206696 
	C705.811279,340.206696 694.987915,340.206696 684.365723,340.206696 
	C684.365723,343.051025 684.365723,345.448761 684.365723,348.257263 
	C688.634277,348.257263 692.538513,348.257263 696.766174,348.257263 
	C696.766174,360.125092 696.807251,371.565430 696.734558,383.004974 
	C696.718323,385.559540 697.202576,387.198090 700.262756,387.028381 
	C702.968323,386.878387 704.505676,386.170929 704.426331,382.949005 
	C704.242249,375.476776 704.405945,367.995941 704.428284,359.528259 
z"/>
<path fill="#030303" opacity="1.000000" stroke="none" 
	d="
M887.532410,1.000005 
	C893.084656,1.905594 898.196533,2.681263 903.249756,3.737216 
	C945.419800,12.549343 974.424927,37.176483 990.620667,76.939255 
	C997.221741,93.145653 999.865967,110.144882 999.854248,127.616180 
	C999.815125,186.103973 999.839539,244.591797 999.839539,303.079620 
	C999.839539,304.867981 999.839539,306.656372 999.839539,308.689636 
	C983.237244,308.689636 967.137695,308.689636 950.434143,308.689636 
	C950.434143,266.793671 950.434143,224.926193 950.434143,182.846802 
	C904.280151,182.846802 858.729065,182.846802 812.774048,182.846802 
	C812.774048,224.863998 812.774048,266.607941 812.774048,308.662842 
	C796.156067,308.662842 779.941284,308.662842 763.414673,308.662842 
	C763.323730,307.009399 763.174255,305.557617 763.173950,304.105835 
	C763.162354,244.618225 763.064270,185.130386 763.203918,125.643089 
	C763.281006,92.798767 773.457275,63.502876 795.730408,39.021595 
	C813.674683,19.298454 836.019592,7.305126 862.426331,3.065526 
	C865.205078,2.619391 867.990356,2.214396 870.886353,1.395159 
	C876.354919,1.000000 881.709900,1.000000 887.532410,1.000005 
M857.499756,133.577072 
	C888.268433,133.577072 919.037170,133.577072 949.726990,133.577072 
	C953.997009,105.901115 939.002747,74.891350 914.658997,60.400734 
	C891.810303,46.800076 864.033508,48.102936 843.254822,63.464470 
	C820.335815,80.408371 809.485229,109.621964 813.669189,133.577026 
	C827.904297,133.577026 842.201965,133.577026 857.499756,133.577072 
z"/>
<path fill="#020202" opacity="1.000000" stroke="none" 
	d="
M1.000000,110.468658 
	C2.382089,104.824127 3.653395,99.615685 5.163630,94.477478 
	C18.355978,49.593632 47.274178,19.936193 92.292969,7.336330 
	C151.355469,-9.194087 215.229935,23.775494 237.356293,81.053123 
	C243.183884,96.138741 246.078979,111.640343 246.047943,127.823219 
	C245.936066,186.147980 246.003967,244.473083 246.003952,302.798065 
	C246.003952,304.617432 246.003967,306.436829 246.003967,308.587708 
	C229.764862,308.587708 213.719009,308.587708 197.127640,308.587708 
	C197.127640,306.640900 197.127380,304.858429 197.127670,303.075958 
	C197.137329,244.917725 197.141739,186.759491 197.158569,128.601257 
	C197.170212,88.355827 166.503265,54.622421 126.326714,52.492420 
	C98.593086,51.022095 77.484856,64.313301 62.093155,86.847939 
	C53.725521,99.098801 49.758202,112.764137 49.798748,127.761398 
	C49.956429,186.085938 49.862957,244.411179 49.862934,302.736145 
	C49.862930,304.557220 49.862934,306.378326 49.862934,308.893097 
	C33.771652,308.893097 17.851822,308.893097 1.465996,308.946533 
	C1.000000,242.979111 1.000000,176.958206 1.000000,110.468658 
z"/>
<path fill="#515151" opacity="1.000000" stroke="none" 
	d="
M1004.000000,371.533142 
	C1003.418579,373.263092 1002.721252,374.486633 1002.274658,375.795715 
	C999.559326,383.755859 994.560608,387.519287 986.984619,387.222748 
	C979.242371,386.919769 973.277771,382.527557 972.314331,374.446045 
	C971.430603,367.033142 971.560669,359.278931 972.703674,351.901245 
	C974.095825,342.914856 980.006836,338.730499 988.264648,338.997986 
	C995.820984,339.242737 1001.587524,344.814667 1002.986877,353.239288 
	C1003.122009,354.052979 1003.180786,354.879364 1003.637451,355.849915 
	C1004.000000,361.022095 1004.000000,366.044189 1004.000000,371.533142 
M979.292542,363.443817 
	C979.618408,366.409332 979.287170,369.672180 980.456238,372.256256 
	C981.611145,374.809296 983.907410,377.466644 986.384583,378.641754 
	C989.394531,380.069733 992.494202,378.111816 993.579346,374.997803 
	C996.258850,367.308380 996.924805,359.353790 993.518066,351.758392 
	C992.631226,349.781219 989.660950,347.635742 987.607849,347.595551 
	C985.566833,347.555603 982.488647,349.626862 981.625793,351.558685 
	C980.130005,354.907532 979.992126,358.862946 979.292542,363.443817 
z"/>
<path fill="#111111" opacity="1.000000" stroke="none" 
	d="
M469.399963,403.000000 
	C468.835022,400.395996 468.670044,397.792023 468.494080,395.014587 
	C474.268890,393.835510 480.470886,394.125885 482.372131,388.729401 
	C480.527893,386.315216 478.615601,384.760956 477.954773,382.787567 
	C474.553223,372.629822 471.472961,362.364502 468.261108,352.074585 
	C476.923553,350.544525 476.831360,350.577454 478.791656,357.711365 
	C480.667450,364.537750 482.783691,371.298096 485.817169,378.096069 
	C487.522522,371.505707 489.320465,364.937531 490.908569,358.319031 
	C492.673584,350.963257 492.590302,350.943268 501.239288,351.896942 
	C500.492981,354.759918 499.825378,357.561615 499.030365,360.326721 
	C496.322571,369.744751 493.734314,379.201813 490.785645,388.544586 
	C488.118378,396.995605 482.234344,401.705658 473.117767,402.614319 
	C471.933319,403.000000 470.866669,403.000000 469.399963,403.000000 
z"/>
<path fill="#030303" opacity="1.000000" stroke="none" 
	d="
M673.442139,281.579437 
	C650.880310,244.461166 628.533997,207.638519 606.066528,170.889923 
	C605.193542,169.461990 603.173157,167.857224 601.663574,167.833221 
	C587.192261,167.602982 572.715881,167.695511 557.583496,167.695511 
	C557.583496,214.811569 557.583496,261.675507 557.583496,308.727295 
	C540.973694,308.727295 525.022278,308.727295 508.716492,308.727295 
	C508.716492,206.732040 508.716492,104.849525 508.716492,2.272117 
	C510.776093,2.272117 512.703430,2.272098 514.630737,2.272120 
	C566.622559,2.272694 618.614380,2.257823 670.606201,2.278998 
	C708.560547,2.294456 742.719238,29.156498 751.832825,66.099312 
	C764.737854,118.411247 726.751709,167.095840 672.563538,167.686584 
	C669.629822,167.718567 666.695496,167.690720 662.678894,167.690720 
	C691.401978,215.041580 719.599792,261.526642 748.345703,308.915161 
	C743.902283,308.915161 740.490784,308.915405 737.079346,308.915070 
	C722.748291,308.913727 708.415955,308.813721 694.087097,308.989014 
	C691.004272,309.026733 689.271667,308.000183 687.767212,305.407715 
	C683.177002,297.498138 678.363281,289.718292 673.442139,281.579437 
M557.471680,67.504982 
	C557.471680,84.446983 557.471680,101.388977 557.471680,118.252609 
	C558.525085,118.525345 558.988098,118.749977 559.451233,118.750214 
	C596.929565,118.769325 634.408875,118.927902 671.885498,118.675377 
	C682.712280,118.602417 692.061829,114.169739 698.522095,105.199333 
	C706.486328,94.140511 707.720825,82.033302 701.473572,69.896927 
	C695.312805,57.928459 684.833374,51.981350 671.433533,51.927902 
	C634.621582,51.781071 597.808777,51.873306 560.996277,51.888180 
	C559.906311,51.888618 558.816467,52.081398 557.471741,52.208599 
	C557.471741,57.217808 557.471741,61.862755 557.471680,67.504982 
z"/>
<path fill="#030303" opacity="1.000000" stroke="none" 
	d="
M304.902466,286.112122 
	C277.400238,265.106995 260.056244,238.245911 254.684662,204.152298 
	C253.807068,198.582138 253.477310,192.874130 253.463852,187.228470 
	C253.411469,165.233459 252.785721,143.199005 253.850159,121.250854 
	C255.942291,78.111458 276.075226,44.719307 312.282837,21.690136 
	C374.381165,-17.806383 458.803864,8.425177 488.604156,75.780411 
	C496.067352,92.648933 499.761963,110.241768 499.700531,128.603088 
	C499.624695,151.255844 499.945526,173.941025 498.847015,196.551559 
	C497.396545,226.406342 484.811432,251.813766 463.831116,272.739502 
	C439.148315,297.358093 409.159363,310.047455 374.048676,309.597687 
	C348.630310,309.272125 325.809875,300.985931 304.902466,286.112122 
M429.440308,238.939041 
	C441.855560,226.376907 449.430847,211.304550 450.049164,193.684662 
	C450.866211,170.399643 451.366150,147.037201 450.425629,123.771774 
	C448.874725,85.408638 416.242218,53.637547 378.362640,52.194546 
	C340.022064,50.733974 303.585480,85.498672 303.073517,124.347488 
	C302.786041,146.162292 302.998749,167.984085 303.040314,189.802643 
	C303.060303,200.291916 305.617310,210.226898 310.183746,219.616959 
	C332.050934,264.583008 391.210510,274.433075 429.440308,238.939041 
z"/>
<path fill="#CE0627" opacity="1.000000" stroke="none" 
	d="
M913.343323,238.705200 
	C918.201782,247.956665 920.089844,257.524658 919.448120,267.493530 
	C918.418030,283.495972 907.876038,296.864014 892.976990,301.573425 
	C877.456909,306.479156 861.373779,301.539581 850.343933,288.479614 
	C838.637939,274.619110 839.361816,254.715027 851.938721,239.539444 
	C860.023376,229.784363 866.159546,219.018234 867.443970,206.104294 
	C867.768677,202.839539 867.492615,199.515015 867.492615,195.575897 
	C880.757751,200.317688 885.067444,210.519913 885.812683,223.095520 
	C890.464783,217.686722 894.897278,212.533203 900.273987,206.281967 
	C901.468079,218.937943 907.182678,228.716522 913.343323,238.705200 
z"/>
<path fill="#111111" opacity="1.000000" stroke="none" 
	d="
M215.011475,375.719299 
	C214.001663,382.259369 210.926453,385.912689 204.741165,386.447876 
	C198.176605,387.015900 191.524780,386.575531 184.632843,386.575531 
	C184.632843,370.968201 184.632843,355.588562 184.632843,339.908600 
	C190.225449,339.908600 195.695999,339.574066 201.108276,339.992706 
	C207.990585,340.525055 211.518753,344.072876 212.053467,350.034302 
	C212.635193,356.519897 210.446426,359.360229 202.736526,361.922791 
	C211.248566,362.585205 215.892014,366.583160 215.011475,375.719299 
M202.549667,366.420563 
	C199.355301,366.265137 196.160934,366.109711 192.855637,365.948883 
	C192.855637,370.442078 192.855637,374.195374 192.855637,378.551117 
	C195.142883,378.551117 197.237976,378.504211 199.330185,378.561920 
	C202.604523,378.652252 205.852600,377.678162 206.114899,374.290955 
	C206.303925,371.849945 204.332748,369.241608 202.549667,366.420563 
M199.747208,357.583099 
	C203.222687,356.604492 204.288315,353.873688 203.098984,351.036591 
	C200.980133,345.982025 196.503006,348.562927 193.091675,348.219666 
	C193.091675,351.689606 193.091675,354.734131 193.091675,357.808014 
	C195.284241,357.808014 197.091095,357.808014 199.747208,357.583099 
z"/>
<path fill="#0F0F0F" opacity="1.000000" stroke="none" 
	d="
M357.145020,350.910889 
	C357.599030,356.943024 357.043884,362.216003 352.568970,366.450592 
	C351.851257,367.129791 351.785919,369.154419 352.201599,370.263763 
	C354.173248,375.525360 356.416107,380.685364 358.572266,385.905518 
	C350.926392,388.203400 349.580048,387.575409 347.136414,380.859253 
	C346.458038,378.994873 345.489868,377.206177 345.046173,375.291992 
	C343.907898,370.380646 341.296753,368.159607 335.713257,370.133911 
	C335.713257,375.246399 335.713257,380.656830 335.713257,386.469971 
	C332.875549,386.469971 330.484680,386.469971 327.686646,386.469971 
	C327.686646,371.235107 327.686646,355.849457 327.686646,339.387024 
	C334.536438,339.736359 341.639008,339.587555 348.564514,340.622894 
	C353.582336,341.373077 356.089752,345.619019 357.145020,350.910889 
M335.384674,351.753174 
	C335.384674,354.834351 335.384674,357.915497 335.384674,361.283600 
	C338.222748,361.283600 340.485474,361.728485 342.454346,361.158417 
	C344.421417,360.588867 347.323090,359.261047 347.627838,357.807190 
	C348.178802,355.178558 348.081573,350.917694 346.468170,349.693726 
	C344.227051,347.993561 340.346710,348.324799 337.147827,348.143524 
	C336.612946,348.113190 335.975494,349.892609 335.384674,351.753174 
z"/>
<path fill="#0E0E0E" opacity="1.000000" stroke="none" 
	d="
M105.904808,349.667725 
	C106.826897,356.859985 105.849518,363.044952 100.016296,367.778778 
	C102.548401,373.978882 105.041542,380.083557 107.700447,386.594147 
	C104.295708,386.594147 101.380188,386.594147 98.125252,386.594147 
	C96.743942,382.914154 94.954636,379.136292 93.927521,375.161499 
	C92.631470,370.145935 90.015396,368.262695 84.522293,370.173981 
	C84.522293,375.391266 84.522293,380.813538 84.522293,386.548340 
	C81.618469,386.548340 79.219551,386.548340 76.486313,386.548340 
	C76.486313,371.098846 76.486313,355.673615 76.486313,340.082306 
	C83.010704,340.082306 89.656593,339.649414 96.214767,340.221680 
	C101.303017,340.665588 104.264069,344.480408 105.904808,349.667725 
M97.198997,352.793274 
	C95.363960,347.613342 93.435310,346.961151 84.302460,348.612244 
	C84.302460,351.671082 84.277473,354.798126 84.317345,357.924377 
	C84.329666,358.890961 84.518524,359.855286 84.619675,360.759094 
	C94.488297,362.517944 96.753571,361.219055 97.198997,352.793274 
z"/>
<path fill="#0E0E0E" opacity="1.000000" stroke="none" 
	d="
M26.627090,342.184631 
	C38.200256,348.555573 37.774654,372.144012 31.818123,379.545868 
	C29.597986,382.304749 25.988638,384.777466 22.590569,385.569580 
	C16.909929,386.893799 10.890104,386.762909 4.711902,387.269165 
	C4.711902,370.952240 4.711902,355.574677 4.711902,338.651428 
	C12.152049,339.815948 19.218988,340.922058 26.627090,342.184631 
M12.738543,376.316193 
	C13.162418,376.916534 13.487838,377.923279 14.025587,378.053528 
	C18.743483,379.196503 24.492428,376.686340 25.708736,371.944366 
	C26.865965,367.432800 27.275032,362.417145 26.617367,357.822937 
	C25.541002,350.303955 20.904539,347.573242 12.742610,348.649353 
	C12.742610,357.513672 12.742610,366.434326 12.738543,376.316193 
z"/>
<path fill="#515151" opacity="1.000000" stroke="none" 
	d="
M555.861511,387.000488 
	C551.436768,387.000488 547.486023,387.000488 543.270020,387.000488 
	C543.270020,371.007904 543.270020,355.912170 543.270020,339.624817 
	C549.629211,339.934692 556.229187,339.682404 562.609985,340.745178 
	C567.906677,341.627411 571.168396,346.816986 570.987915,351.706299 
	C570.807129,356.604218 567.444641,359.920074 560.195312,361.745911 
	C561.942261,362.212463 562.960205,362.581116 564.010254,362.748932 
	C570.464539,363.780670 573.763306,367.346527 573.997192,373.616119 
	C574.214905,379.451691 570.673584,384.600037 565.161682,385.906219 
	C562.294250,386.585785 559.282288,386.655365 555.861511,387.000488 
M565.496704,370.900757 
	C562.836243,363.487000 556.657166,366.824219 551.423340,365.851837 
	C551.423340,370.390259 551.423340,374.389954 551.423340,378.345795 
	C562.231689,379.704071 564.133789,378.775024 565.496704,370.900757 
M551.146301,353.438477 
	C551.243042,354.876984 551.339722,356.315460 551.525696,359.081055 
	C555.351562,357.782440 558.746521,357.152435 561.436279,355.424591 
	C562.338501,354.845062 562.083008,349.994598 561.255066,349.635406 
	C558.309509,348.357452 554.889343,348.173340 551.146179,347.482239 
	C551.146179,349.920074 551.146179,351.221558 551.146301,353.438477 
z"/>
<path fill="#131313" opacity="1.000000" stroke="none" 
	d="
M137.669067,358.809631 
	C134.399612,362.417053 134.127182,365.640869 136.455551,369.748444 
	C139.377075,374.902374 141.469757,380.526154 143.943069,385.997864 
	C135.833023,388.137146 134.260101,387.403870 131.454132,380.387909 
	C130.100479,377.003296 128.773132,373.608185 127.312996,369.911774 
	C125.164688,370.444336 123.149963,370.943756 120.630302,371.568390 
	C120.630302,376.593842 120.630302,381.514313 120.630302,386.657379 
	C117.645760,386.657379 115.223198,386.657379 112.494720,386.657379 
	C112.494720,371.034851 112.494720,355.625702 112.494720,339.912964 
	C115.129036,339.912964 117.702057,339.912964 120.727524,339.912964 
	C120.727524,347.440308 120.727524,354.674194 120.727524,361.991608 
	C128.957764,360.165527 131.986221,355.147827 134.254974,339.966217 
	C136.594559,339.966217 138.999466,339.966217 141.731903,339.966217 
	C142.731049,346.603363 140.650452,352.608429 137.669067,358.809631 
z"/>
<path fill="#515151" opacity="1.000000" stroke="none" 
	d="
M635.817139,385.290100 
	C634.413269,381.502228 633.234070,378.066559 631.895020,374.694275 
	C629.557495,368.807556 629.516296,368.823914 622.223938,369.829803 
	C622.223938,374.151855 622.154480,378.581085 622.250732,383.006744 
	C622.305786,385.539398 621.837036,387.291046 618.724426,387.000549 
	C616.333801,386.777405 613.977051,386.831543 613.987793,383.386780 
	C614.032227,369.094391 614.006470,354.801788 614.006470,340.120300 
	C621.082520,340.120300 627.987854,339.219452 634.551819,340.332092 
	C644.321167,341.988037 647.858093,357.459808 640.360168,365.179993 
	C638.090210,367.517212 638.088623,368.956940 639.285583,371.500671 
	C641.458740,376.118988 643.314575,380.886597 645.979736,387.193695 
	C641.930359,386.577667 638.950073,386.124268 635.817139,385.290100 
M630.885254,347.998322 
	C628.120605,347.998322 625.355896,347.998322 622.572266,347.998322 
	C622.572266,352.836121 622.572266,357.167206 622.572266,361.824158 
	C627.389893,360.979736 632.969788,363.886383 635.167114,357.200134 
	C636.467651,353.242584 635.784546,350.034546 630.885254,347.998322 
z"/>
<path fill="#505050" opacity="1.000000" stroke="none" 
	d="
M937.000793,370.994385 
	C937.000793,360.536835 937.000793,350.578369 937.000793,340.688721 
	C948.163757,337.495636 959.350952,340.257202 964.254517,347.290985 
	C969.552307,354.890503 969.556458,372.143036 964.369812,379.525421 
	C960.045837,385.679871 953.472046,386.614471 946.843140,386.928497 
	C937.010254,387.394287 937.000732,387.194550 937.000732,377.478973 
	C937.000732,375.483795 937.000793,373.488617 937.000793,370.994385 
M957.729614,352.979706 
	C954.729065,348.292694 950.379333,347.573914 945.103882,348.462769 
	C945.103882,353.734131 945.103943,358.691132 945.103943,363.648102 
	C945.103943,368.554321 945.103882,373.460541 945.103882,378.307678 
	C954.949951,378.658356 959.593567,374.798340 959.855103,365.805878 
	C959.971802,361.795044 958.667419,357.742859 957.729614,352.979706 
z"/>
<path fill="#0C0C0C" opacity="1.000000" stroke="none" 
	d="
M255.979202,359.000427 
	C255.979233,352.353607 255.979233,346.206726 255.979233,339.896881 
	C258.729340,339.896881 261.157379,339.896881 264.054138,339.896881 
	C264.054138,347.393005 264.054138,354.630829 264.054138,361.933685 
	C272.374939,360.437286 275.979858,354.470856 277.500000,340.032166 
	C280.159576,340.032166 282.872559,340.032166 285.855133,340.032166 
	C285.397858,347.529114 284.114441,354.704376 279.741150,360.813568 
	C277.889893,363.399597 277.916016,365.413513 279.182526,368.047516 
	C282.044708,374.000214 284.708374,380.048340 287.495483,386.151093 
	C278.358337,387.946747 278.316132,387.925903 275.024414,380.114014 
	C273.612488,376.763275 272.204529,373.410858 270.819122,370.117096 
	C265.119598,369.791077 263.138885,372.439209 263.871796,377.838837 
	C264.244873,380.587219 263.937134,383.428040 263.937134,386.544434 
	C261.330048,386.544434 259.065186,386.544434 255.979172,386.544434 
	C255.979172,377.671509 255.979172,368.585938 255.979202,359.000427 
z"/>
<path fill="#525252" opacity="1.000000" stroke="none" 
	d="
M652.507935,381.354492 
	C646.610962,369.876160 646.790588,358.370605 651.374695,347.047119 
	C653.576904,341.607391 658.505554,339.008362 664.542480,338.992035 
	C670.574219,338.975708 675.279968,341.400696 677.795776,346.952362 
	C682.394714,357.101013 682.507507,367.706543 678.633972,377.911316 
	C674.398865,389.068634 661.197876,390.686157 652.507935,381.354492 
M658.350708,374.857391 
	C659.954224,378.117676 662.789062,379.969055 666.039795,378.596191 
	C668.305359,377.639404 670.780090,375.180603 671.476562,372.882172 
	C673.519043,366.141937 673.539124,359.278931 671.089355,352.385895 
	C669.861755,348.931641 667.355530,347.021759 664.623291,347.514648 
	C662.227417,347.946930 659.151001,350.382843 658.321472,352.646820 
	C655.770386,359.609802 656.272400,366.914062 658.350708,374.857391 
z"/>
<path fill="#070707" opacity="1.000000" stroke="none" 
	d="
M321.788208,345.776733 
	C320.493530,346.820099 319.220001,347.866913 317.914490,347.908508 
	C312.130432,348.092743 306.337158,347.988312 300.399628,347.988312 
	C300.399628,351.850555 300.399628,355.248749 300.399628,358.974182 
	C305.597870,358.974182 310.543793,358.974182 315.855042,358.974182 
	C315.855042,361.677734 315.855042,364.073334 315.855042,367.074860 
	C310.975281,367.074860 305.912872,367.074860 300.452820,367.074860 
	C300.452820,371.017609 300.452820,374.389923 300.452820,378.344482 
	C307.415466,378.344482 314.323364,378.344482 321.530762,378.344482 
	C321.530762,381.304016 321.530762,383.714508 321.530762,386.495239 
	C311.950714,386.495239 302.234283,386.495239 292.254303,386.495239 
	C292.254303,370.955475 292.254303,355.551514 292.254303,339.893066 
	C302.005157,339.893066 311.598267,339.893066 321.794647,339.893066 
	C321.794647,341.770355 321.794647,343.543915 321.788208,345.776733 
z"/>
<path fill="#0C0C0C" opacity="1.000000" stroke="none" 
	d="
M435.680359,375.983276 
	C435.680389,362.874268 435.680389,350.263397 435.680389,337.292572 
	C438.378540,337.292572 440.904907,337.292572 443.791077,337.292572 
	C443.791077,343.039215 443.791077,348.783325 443.791077,354.705811 
	C446.379181,353.349030 448.502716,351.597809 450.884216,351.112488 
	C456.906281,349.885284 461.991821,353.230591 463.993561,359.123627 
	C469.452118,375.192993 460.115204,387.970459 443.303406,387.395813 
	C440.994720,387.316925 438.693115,387.032593 435.680298,386.785248 
	C435.680298,383.316040 435.680298,379.898712 435.680359,375.983276 
M444.528748,363.547516 
	C444.286896,368.573120 444.045044,373.598724 443.803864,378.611053 
	C452.822662,378.874207 456.809998,374.971344 456.125488,366.496307 
	C455.937134,364.164337 454.060455,360.552521 452.318207,360.122620 
	C450.165192,359.591309 447.344391,361.766296 444.528748,363.547516 
z"/>
<path fill="#0E0E0E" opacity="1.000000" stroke="none" 
	d="
M226.970703,348.788513 
	C227.817764,345.534912 228.569412,342.678619 229.313171,339.852295 
	C232.850906,339.852295 235.966507,339.852295 239.259888,339.852295 
	C243.386566,355.404175 247.460541,370.757385 251.652588,386.555603 
	C248.613586,386.555603 246.036926,386.555603 242.947113,386.555603 
	C242.276749,383.941986 241.551559,381.114655 240.844116,378.356567 
	C228.192871,376.715210 228.092636,376.768829 225.438629,386.651093 
	C222.881897,386.651093 220.266388,386.651093 216.751236,386.651093 
	C220.184921,373.944336 223.530121,361.565063 226.970703,348.788513 
M230.013855,367.624847 
	C232.093201,372.352600 235.562012,368.827728 238.922592,369.745361 
	C237.397003,363.544403 236.069229,358.147552 234.741455,352.750671 
	C234.332947,352.824005 233.924438,352.897339 233.515930,352.970673 
	C232.393616,357.571777 231.271286,362.172882 230.013855,367.624847 
z"/>
<path fill="#0E0E0E" opacity="1.000000" stroke="none" 
	d="
M66.298889,386.854248 
	C62.133976,387.006958 62.848862,383.770355 62.494568,381.867218 
	C61.943661,378.907928 60.932819,377.484497 57.671528,377.824768 
	C54.727520,378.131927 51.726181,377.889618 48.866421,377.889618 
	C44.990570,387.553223 44.990570,387.553223 37.599850,386.235229 
	C41.663357,370.849121 45.716824,355.501007 49.832077,339.918945 
	C53.074440,339.918945 56.168732,339.918945 59.918797,339.918945 
	C63.964108,355.135376 68.067917,370.571838 72.400337,386.868195 
	C70.171349,386.868195 68.447716,386.868195 66.298889,386.854248 
M57.750393,361.830261 
	C56.960056,358.758514 56.169724,355.686798 55.379391,352.615051 
	C55.035030,352.633972 54.690670,352.652924 54.346313,352.671844 
	C52.987480,358.262299 51.628651,363.852783 50.223400,369.634216 
	C53.489399,369.634216 56.232403,369.634216 59.452736,369.634216 
	C58.884613,367.077393 58.394249,364.870544 57.750393,361.830261 
z"/>
<path fill="#505050" opacity="1.000000" stroke="none" 
	d="
M742.757019,367.190674 
	C741.289246,367.191315 740.291443,367.201904 739.293823,367.189728 
	C729.366882,367.068665 728.940613,367.629761 731.127808,378.516724 
	C737.770142,378.516724 744.516235,378.516724 751.629211,378.516724 
	C751.629211,381.320404 751.629211,383.693909 751.629211,386.536804 
	C742.045044,386.536804 732.512817,386.536804 722.765869,386.536804 
	C722.765869,371.152069 722.765869,355.895081 722.765869,340.215027 
	C732.337891,340.215027 741.868591,340.215027 751.701904,340.215027 
	C751.701904,342.631317 751.701904,345.029755 751.701904,347.898010 
	C744.810303,347.898010 737.906921,347.898010 730.723999,347.898010 
	C730.723999,351.761932 730.723999,355.165802 730.723999,358.907043 
	C735.841492,358.907043 740.786011,358.907043 746.313232,358.907043 
	C745.559387,362.100525 750.186768,366.466461 742.757019,367.190674 
z"/>
<path fill="#525252" opacity="1.000000" stroke="none" 
	d="
M836.114441,351.164917 
	C837.190430,347.264038 838.151062,343.756104 839.074524,340.383881 
	C839.636475,340.204407 839.947998,340.030762 840.267822,340.013519 
	C849.249451,339.529358 849.065918,339.577576 851.219421,348.245972 
	C854.372437,360.937805 857.819885,373.556458 861.143433,386.212036 
	C853.922729,387.920105 853.489563,387.759918 851.688782,381.298920 
	C850.995911,378.812683 849.814026,377.667267 847.157898,377.965424 
	C845.348816,378.168518 843.434753,378.305450 841.679626,377.937500 
	C838.210083,377.210114 837.028259,379.009613 836.200989,381.894348 
	C834.636841,387.348907 833.444580,387.856384 826.912476,386.044128 
	C829.939575,374.555359 832.969360,363.056580 836.114441,351.164917 
M844.970520,353.799713 
	C844.768127,353.100372 844.565796,352.401062 844.363403,351.701721 
	C844.078491,351.703247 843.793518,351.704773 843.508606,351.706299 
	C842.158020,357.607208 840.807434,363.508087 839.397766,369.666992 
	C842.751831,369.666992 845.508850,369.666992 848.781067,369.666992 
	C847.480408,364.396027 846.265808,359.473938 844.970520,353.799713 
z"/>
<path fill="#525252" opacity="1.000000" stroke="none" 
	d="
M912.485107,339.867126 
	C915.401733,339.799866 917.880493,339.799866 920.600830,339.799866 
	C924.723938,355.330933 928.777527,370.600098 932.829895,385.864594 
	C925.778931,388.016144 925.296997,387.637787 923.063660,381.057617 
	C922.620056,379.750641 920.643433,378.532623 919.142639,378.125336 
	C917.282654,377.620544 915.142090,378.254059 913.194092,377.945496 
	C910.026001,377.443665 908.836853,378.849915 908.076782,381.726227 
	C906.559692,387.467560 905.640991,387.811401 898.714966,386.059235 
	C900.808044,377.779388 902.855225,369.477783 905.014832,361.205505 
	C906.601135,355.128906 908.278503,349.074219 910.052185,343.050049 
	C910.386658,341.914185 911.365662,340.968048 912.485107,339.867126 
M917.293335,356.250763 
	C916.893799,354.747375 916.494324,353.243988 915.755615,350.464050 
	C914.077026,356.983704 912.725586,362.168152 911.426208,367.365662 
	C911.272888,367.979065 911.405396,368.663971 911.405396,369.610474 
	C914.215759,369.610474 916.952698,369.610474 920.352722,369.610474 
	C919.388367,365.236328 918.479614,361.114075 917.293335,356.250763 
z"/>
<path fill="#515151" opacity="1.000000" stroke="none" 
	d="
M812.196045,386.751587 
	C805.898987,386.623505 800.013306,386.354156 793.647400,386.062805 
	C793.821899,382.100800 793.944153,379.326111 794.060791,376.678131 
	C798.654297,377.463776 803.122498,378.656860 807.624084,378.799927 
	C809.595520,378.862640 813.094116,376.993439 813.294250,375.621460 
	C813.578552,373.672546 811.927368,370.846466 810.249878,369.354828 
	C808.087646,367.432129 804.941772,366.670135 802.466003,365.035034 
	C795.381775,360.356445 792.446594,350.955872 796.062439,345.145508 
	C799.999573,338.818878 810.766418,336.904633 817.988953,341.328644 
	C819.507935,342.259033 820.824036,343.520538 822.555969,344.883057 
	C820.783203,347.048553 819.135193,349.061646 817.562134,350.983154 
	C814.938110,349.839630 812.488281,348.123718 809.884827,347.845367 
	C807.849487,347.627747 804.462402,348.661224 803.797485,350.111481 
	C803.083374,351.669128 804.223206,355.002838 805.671875,356.413727 
	C807.978027,358.659851 811.611694,359.532440 813.952087,361.756134 
	C817.078674,364.726746 820.721558,368.041687 821.968872,371.909729 
	C824.271973,379.051849 820.613098,383.872925 812.196045,386.751587 
z"/>
<path fill="#0F0F0F" opacity="1.000000" stroke="none" 
	d="
M373.678833,375.160583 
	C371.333954,368.359924 369.100220,361.981354 366.609650,355.704681 
	C364.553772,350.523468 362.194061,345.462830 359.935547,340.271942 
	C368.400604,338.703766 368.397125,338.705170 371.239075,345.793640 
	C373.208618,350.706055 375.189423,355.613922 377.684448,361.814209 
	C380.174683,355.746338 382.199310,350.782013 384.248291,345.827789 
	C387.024200,339.115784 387.032227,339.119110 395.168152,340.018188 
	C390.848389,355.579315 378.434387,368.739990 382.292908,386.601501 
	C379.002625,386.601501 376.576874,386.601501 373.678894,386.601501 
	C373.678894,382.883759 373.678894,379.255280 373.678833,375.160583 
z"/>
<path fill="#525252" opacity="1.000000" stroke="none" 
	d="
M585.836304,378.985138 
	C587.192810,377.916901 588.845825,376.876709 588.874207,375.793945 
	C589.092102,367.481445 588.898621,359.158966 589.047852,350.843414 
	C589.098206,348.040771 587.786316,347.399109 585.425232,347.478790 
	C583.634888,347.539215 581.840820,347.490753 579.761658,347.490753 
	C579.543945,345.025269 579.360291,342.945343 579.127136,340.305145 
	C588.177856,340.305145 597.005676,340.305145 606.090027,340.305145 
	C606.090027,342.439178 606.090027,344.524872 606.090027,347.174377 
	C603.218201,347.340668 600.345642,347.506989 597.193848,347.689453 
	C597.193848,358.000549 597.193848,368.074463 597.193848,378.556274 
	C599.966064,378.556274 602.714661,378.556274 605.900696,378.556274 
	C605.900696,381.303650 605.900696,383.658325 605.900696,386.748810 
	C597.839844,386.748810 589.737183,387.029358 581.698486,386.439087 
	C580.525452,386.352936 579.657532,382.112366 578.299927,378.993439 
	C581.800659,378.993439 583.590515,378.993439 585.836304,378.985138 
z"/>
<path fill="#505050" opacity="1.000000" stroke="none" 
	d="
M873.999207,372.847992 
	C873.999207,374.947021 873.999207,376.566864 873.999207,378.629761 
	C881.209167,378.629761 887.960999,378.629761 894.566406,378.629761 
	C896.882874,386.107697 896.282959,386.993317 889.316040,386.997467 
	C881.708496,387.001984 874.100952,386.998474 866.250244,386.998474 
	C866.250244,371.224670 866.250244,355.844147 866.250244,340.127930 
	C868.665466,340.127930 871.050598,340.127930 873.999207,340.127930 
	C873.999207,350.857544 873.999207,361.613159 873.999207,372.847992 
z"/>
<path fill="#505050" opacity="1.000000" stroke="none" 
	d="
M704.428467,360.023438 
	C704.405945,367.995941 704.242249,375.476776 704.426331,382.949005 
	C704.505676,386.170929 702.968323,386.878387 700.262756,387.028381 
	C697.202576,387.198090 696.718323,385.559540 696.734558,383.004974 
	C696.807251,371.565430 696.766174,360.125092 696.766174,348.257263 
	C692.538513,348.257263 688.634277,348.257263 684.365723,348.257263 
	C684.365723,345.448761 684.365723,343.051025 684.365723,340.206696 
	C694.987915,340.206696 705.811279,340.206696 716.817871,340.206696 
	C716.817871,342.775513 716.817871,345.053802 716.817871,347.796753 
	C712.920227,347.796753 709.007812,347.796753 704.428284,347.796753 
	C704.428284,352.007721 704.428284,355.768005 704.428467,360.023438 
z"/>
<path fill="#F7F7F7" opacity="1.000000" stroke="none" 
	d="
M856.999756,133.577057 
	C842.201965,133.577026 827.904297,133.577026 813.669189,133.577026 
	C809.485229,109.621964 820.335815,80.408371 843.254822,63.464470 
	C864.033508,48.102936 891.810303,46.800076 914.658997,60.400734 
	C939.002747,74.891350 953.997009,105.901115 949.726990,133.577072 
	C919.037170,133.577072 888.268433,133.577072 856.999756,133.577057 
M875.075134,96.406822 
	C866.429749,88.595451 860.211243,88.140976 847.729797,94.408279 
	C859.791748,107.829453 860.957947,109.900848 859.284790,114.700890 
	C854.041199,110.249451 848.870117,105.619492 843.407166,101.364075 
	C841.707153,100.039810 839.085083,98.828789 837.112732,99.118095 
	C830.209290,100.130692 822.712769,111.445671 823.575989,118.606552 
	C824.014893,122.247620 825.299377,123.948280 829.540283,123.923904 
	C863.830139,123.726822 898.122253,123.712975 932.411926,123.925682 
	C937.406311,123.956673 938.587341,121.614326 939.187439,117.521065 
	C941.092346,104.528198 924.591919,95.268021 914.224060,94.466026 
	C916.219604,99.124329 918.386292,104.182274 920.553040,109.240211 
	C920.101501,109.433647 919.649963,109.627075 919.198425,109.820503 
	C900.521973,86.393013 896.308411,87.862572 880.726990,89.085396 
	C890.284363,97.197693 894.221680,107.517319 893.906128,119.775269 
	C887.654175,111.975487 881.617249,104.443924 875.075134,96.406822 
z"/>
<path fill="#F6F6F6" opacity="1.000000" stroke="none" 
	d="
M979.288696,363.003906 
	C979.992126,358.862946 980.130005,354.907532 981.625793,351.558685 
	C982.488647,349.626862 985.566833,347.555603 987.607849,347.595551 
	C989.660950,347.635742 992.631226,349.781219 993.518066,351.758392 
	C996.924805,359.353790 996.258850,367.308380 993.579346,374.997803 
	C992.494202,378.111816 989.394531,380.069733 986.384583,378.641754 
	C983.907410,377.466644 981.611145,374.809296 980.456238,372.256256 
	C979.287170,369.672180 979.618408,366.409332 979.288696,363.003906 
z"/>
<path fill="#FDFDFD" opacity="1.000000" stroke="none" 
	d="
M557.471680,67.006348 
	C557.471741,61.862755 557.471741,57.217808 557.471741,52.208599 
	C558.816467,52.081398 559.906311,51.888618 560.996277,51.888180 
	C597.808777,51.873306 634.621582,51.781071 671.433533,51.927902 
	C684.833374,51.981350 695.312805,57.928459 701.473572,69.896927 
	C707.720825,82.033302 706.486328,94.140511 698.522095,105.199333 
	C692.061829,114.169739 682.712280,118.602417 671.885498,118.675377 
	C634.408875,118.927902 596.929565,118.769325 559.451233,118.750214 
	C558.988098,118.749977 558.525085,118.525345 557.471680,118.252609 
	C557.471680,101.388977 557.471680,84.446983 557.471680,67.006348 
z"/>
<path fill="#FEFEFE" opacity="1.000000" stroke="none" 
	d="
M429.178223,239.180542 
	C391.210510,274.433075 332.050934,264.583008 310.183746,219.616959 
	C305.617310,210.226898 303.060303,200.291916 303.040314,189.802643 
	C302.998749,167.984085 302.786041,146.162292 303.073517,124.347488 
	C303.585480,85.498672 340.022064,50.733974 378.362640,52.194546 
	C416.242218,53.637547 448.874725,85.408638 450.425629,123.771774 
	C451.366150,147.037201 450.866211,170.399643 450.049164,193.684662 
	C449.430847,211.304550 441.855560,226.376907 429.178223,239.180542 
z"/>
<path fill="#EFEFEF" opacity="1.000000" stroke="none" 
	d="
M202.937393,366.564240 
	C204.332748,369.241608 206.303925,371.849945 206.114899,374.290955 
	C205.852600,377.678162 202.604523,378.652252 199.330185,378.561920 
	C197.237976,378.504211 195.142883,378.551117 192.855637,378.551117 
	C192.855637,374.195374 192.855637,370.442078 192.855637,365.948883 
	C196.160934,366.109711 199.355301,366.265137 202.937393,366.564240 
z"/>
<path fill="#F6F6F6" opacity="1.000000" stroke="none" 
	d="
M199.322571,357.695557 
	C197.091095,357.808014 195.284241,357.808014 193.091675,357.808014 
	C193.091675,354.734131 193.091675,351.689606 193.091675,348.219666 
	C196.503006,348.562927 200.980133,345.982025 203.098984,351.036591 
	C204.288315,353.873688 203.222687,356.604492 199.322571,357.695557 
z"/>
<path fill="#EFEFEF" opacity="1.000000" stroke="none" 
	d="
M335.385071,351.294495 
	C335.975494,349.892609 336.612946,348.113190 337.147827,348.143524 
	C340.346710,348.324799 344.227051,347.993561 346.468170,349.693726 
	C348.081573,350.917694 348.178802,355.178558 347.627838,357.807190 
	C347.323090,359.261047 344.421417,360.588867 342.454346,361.158417 
	C340.485474,361.728485 338.222748,361.283600 335.384674,361.283600 
	C335.384674,357.915497 335.384674,354.834351 335.385071,351.294495 
z"/>
<path fill="#EFEFEF" opacity="1.000000" stroke="none" 
	d="
M97.244461,353.224365 
	C96.753571,361.219055 94.488297,362.517944 84.619675,360.759094 
	C84.518524,359.855286 84.329666,358.890961 84.317345,357.924377 
	C84.277473,354.798126 84.302460,351.671082 84.302460,348.612244 
	C93.435310,346.961151 95.363960,347.613342 97.244461,353.224365 
z"/>
<path fill="#F7F7F7" opacity="1.000000" stroke="none" 
	d="
M12.740576,375.835571 
	C12.742610,366.434326 12.742610,357.513672 12.742610,348.649353 
	C20.904539,347.573242 25.541002,350.303955 26.617367,357.822937 
	C27.275032,362.417145 26.865965,367.432800 25.708736,371.944366 
	C24.492428,376.686340 18.743483,379.196503 14.025587,378.053528 
	C13.487838,377.923279 13.162418,376.916534 12.740576,375.835571 
z"/>
<path fill="#EFEFEF" opacity="1.000000" stroke="none" 
	d="
M565.532837,371.272644 
	C564.133789,378.775024 562.231689,379.704071 551.423340,378.345795 
	C551.423340,374.389954 551.423340,370.390259 551.423340,365.851837 
	C556.657166,366.824219 562.836243,363.487000 565.532837,371.272644 
z"/>
<path fill="#F6F6F6" opacity="1.000000" stroke="none" 
	d="
M551.146240,352.980774 
	C551.146179,351.221558 551.146179,349.920074 551.146179,347.482239 
	C554.889343,348.173340 558.309509,348.357452 561.255066,349.635406 
	C562.083008,349.994598 562.338501,354.845062 561.436279,355.424591 
	C558.746521,357.152435 555.351562,357.782440 551.525696,359.081055 
	C551.339722,356.315460 551.243042,354.876984 551.146240,352.980774 
z"/>
<path fill="#EFEFEF" opacity="1.000000" stroke="none" 
	d="
M631.306946,348.049713 
	C635.784546,350.034546 636.467651,353.242584 635.167114,357.200134 
	C632.969788,363.886383 627.389893,360.979736 622.572266,361.824158 
	C622.572266,357.167206 622.572266,352.836121 622.572266,347.998322 
	C625.355896,347.998322 628.120605,347.998322 631.306946,348.049713 
z"/>
<path fill="#F6F6F6" opacity="1.000000" stroke="none" 
	d="
M957.868774,353.344604 
	C958.667419,357.742859 959.971802,361.795044 959.855103,365.805878 
	C959.593567,374.798340 954.949951,378.658356 945.103882,378.307678 
	C945.103882,373.460541 945.103943,368.554321 945.103943,363.648102 
	C945.103943,358.691132 945.103882,353.734131 945.103882,348.462769 
	C950.379333,347.573914 954.729065,348.292694 957.868774,353.344604 
z"/>
<path fill="#F6F6F6" opacity="1.000000" stroke="none" 
	d="
M658.235718,374.471130 
	C656.272400,366.914062 655.770386,359.609802 658.321472,352.646820 
	C659.151001,350.382843 662.227417,347.946930 664.623291,347.514648 
	C667.355530,347.021759 669.861755,348.931641 671.089355,352.385895 
	C673.539124,359.278931 673.519043,366.141937 671.476562,372.882172 
	C670.780090,375.180603 668.305359,377.639404 666.039795,378.596191 
	C662.789062,379.969055 659.954224,378.117676 658.235718,374.471130 
z"/>
<path fill="#EFEFEF" opacity="1.000000" stroke="none" 
	d="
M444.670410,363.159729 
	C447.344391,361.766296 450.165192,359.591309 452.318207,360.122620 
	C454.060455,360.552521 455.937134,364.164337 456.125488,366.496307 
	C456.809998,374.971344 452.822662,378.874207 443.803864,378.611053 
	C444.045044,373.598724 444.286896,368.573120 444.670410,363.159729 
z"/>
<path fill="#E5E5E5" opacity="1.000000" stroke="none" 
	d="
M230.081421,367.199402 
	C231.271286,362.172882 232.393616,357.571777 233.515930,352.970673 
	C233.924438,352.897339 234.332947,352.824005 234.741455,352.750671 
	C236.069229,358.147552 237.397003,363.544403 238.922592,369.745361 
	C235.562012,368.827728 232.093201,372.352600 230.081421,367.199402 
z"/>
<path fill="#E5E5E5" opacity="1.000000" stroke="none" 
	d="
M57.827141,362.246948 
	C58.394249,364.870544 58.884613,367.077393 59.452736,369.634216 
	C56.232403,369.634216 53.489399,369.634216 50.223400,369.634216 
	C51.628651,363.852783 52.987480,358.262299 54.346313,352.671844 
	C54.690670,352.652924 55.035030,352.633972 55.379391,352.615051 
	C56.169724,355.686798 56.960056,358.758514 57.827141,362.246948 
z"/>
<path fill="#EFEFEF" opacity="1.000000" stroke="none" 
	d="
M845.010864,354.175781 
	C846.265808,359.473938 847.480408,364.396027 848.781067,369.666992 
	C845.508850,369.666992 842.751831,369.666992 839.397766,369.666992 
	C840.807434,363.508087 842.158020,357.607208 843.508606,351.706299 
	C843.793518,351.704773 844.078491,351.703247 844.363403,351.701721 
	C844.565796,352.401062 844.768127,353.100372 845.010864,354.175781 
z"/>
<path fill="#EFEFEF" opacity="1.000000" stroke="none" 
	d="
M917.432068,356.621277 
	C918.479614,361.114075 919.388367,365.236328 920.352722,369.610474 
	C916.952698,369.610474 914.215759,369.610474 911.405396,369.610474 
	C911.405396,368.663971 911.272888,367.979065 911.426208,367.365662 
	C912.725586,362.168152 914.077026,356.983704 915.755615,350.464050 
	C916.494324,353.243988 916.893799,354.747375 917.432068,356.621277 
z"/>
<path fill="#0A0A0A" opacity="1.000000" stroke="none" 
	d="
M875.327759,96.659592 
	C881.617249,104.443924 887.654175,111.975487 893.906128,119.775269 
	C894.221680,107.517319 890.284363,97.197693 880.726990,89.085396 
	C896.308411,87.862572 900.521973,86.393013 919.198425,109.820503 
	C919.649963,109.627075 920.101501,109.433647 920.553040,109.240211 
	C918.386292,104.182274 916.219604,99.124329 914.224060,94.466026 
	C924.591919,95.268021 941.092346,104.528198 939.187439,117.521065 
	C938.587341,121.614326 937.406311,123.956673 932.411926,123.925682 
	C898.122253,123.712975 863.830139,123.726822 829.540283,123.923904 
	C825.299377,123.948280 824.014893,122.247620 823.575989,118.606552 
	C822.712769,111.445671 830.209290,100.130692 837.112732,99.118095 
	C839.085083,98.828789 841.707153,100.039810 843.407166,101.364075 
	C848.870117,105.619492 854.041199,110.249451 859.284790,114.700890 
	C860.957947,109.900848 859.791748,107.829453 847.729797,94.408279 
	C860.211243,88.140976 866.429749,88.595451 875.327759,96.659592 
z"/>
</svg>